<svg xmlns="http://www.w3.org/2000/svg" xml:space="preserve" style="enable-background:new 0 0 599.9 91.3" viewBox="0 0 599.9 91.3"><path d="M172.5 47.1c0-17.2 8.2-26.6 20.7-26.6 4.6 0 8.4 1.4 13.2 3.8 1.7.8 3.1.5 5.3-4.8l1.6-3.7c1.6-4.4 1.7-6.3-.3-7.2-5.7-3.5-14.6-5.5-22.4-5.5-22 0-38.6 17.5-38.6 44s16.7 44.2 38.6 44.2c7.8 0 16.9-2.2 22.6-5.6 1.9-.9 1.8-2.8.2-7.2l-1.6-3.9c-2.3-5.4-3.6-5.7-5.4-4.8-4.7 2.4-8.7 3.8-13.4 3.8-12.3 0-20.5-9.3-20.5-26.5m262 40.1c0 2.4-.9 3-7.4 3h-.7c-6.8 0-7.8-.4-8.4-2.1-.3-.9-.6-2.4-.8-3.5-3.6 4.4-8 6.7-14.7 6.7-16.2 0-26-12.1-26-31.4 0-20.9 10.8-33.3 27-33.3 4.5 0 8.7 1.4 11.9 4V3.5c0-1.9.2-2.6 9.2-2.6h.6c8.4 0 9.3.7 9.3 2.6v83.7zm-19.1-41.3c-2.4-2.4-5.3-3.8-8.7-3.8-7.2 0-10.6 6.3-10.6 17.9 0 6.6 1.4 10.9 3.4 13.1 1.8 2.2 4.6 3 7.2 3 3.4 0 6-.8 7.2-2.4 1-1.2 1.5-3 1.5-7.2V45.9zm116.5 41.8c0 1.8-.8 2.5-9.3 2.5h-.6c-9 0-9.3-.8-9.3-2.5V3.6c0-1.9.2-2.6 9.3-2.6h.6c8.4 0 9.3.7 9.3 2.6v84.1zm-67.2-22.4c1.1 7.6 5.8 11.3 13.1 11.3 5.8 0 11.1-1.3 17.3-4.1 1.3-.5 2.5 0 3.8 4.3l1 2.4c1.4 4.4 1.3 5.4-.2 6.2-7.4 4.2-15.1 5.9-23.7 5.9-19 0-30.9-11.7-30.9-31.7 0-19.4 10.9-32.9 29.8-32.9 18.5 0 28.1 13.3 28.1 31.8 0 6.1-.5 6.8-2.7 6.8h-35.6zm19.2-11.9c-.3-6.4-2.8-12-9.2-12-5.5 0-9.4 4.1-10.2 12h19.4zm77.8 11.9c1.1 7.6 5.7 11.3 13.1 11.3 5.7 0 11.1-1.3 17.3-4.1 1.3-.5 2.4 0 3.8 4.3l.9 2.4c1.4 4.4 1.3 5.4-.1 6.2-7.4 4.2-15.2 5.9-23.8 5.9-19 0-30.9-11.7-30.9-31.7 0-19.4 10.9-32.9 29.7-32.9 18.6 0 28.2 13.3 28.2 31.8 0 6.1-.6 6.8-2.7 6.8h-35.5zm19.2-11.9c-.3-6.4-3-12-9.2-12-5.5 0-9.5 4.1-10.2 12h19.4zm-234.9-7c-2-2.6-5-4.1-8.3-4.2-7.1 0-10.6 6.3-10.6 17.6 0 9.6 2.5 16.6 10.4 16.6 3 0 5.1-.7 6.6-2.3 1.4-1.5 2-3.5 2-8-.1.1-.1-19.7-.1-19.7zm19.3 40.8c0 2.4-.9 3-7.4 3h-.9c-6.8 0-7.8-.4-8.4-2.1-.3-.9-.6-2.4-.8-3.5-3.6 4.4-8 6.7-14.7 6.7-15.6 0-25.5-11.8-25.5-31.1 0-21.5 12.3-33.5 26.9-33.5 6 0 11.1 2.6 13.9 6l.3-2.7c.2-1.3.5-2.2 7.6-2.2h.8c7.3 0 8.3.5 8.3 2.5l-.1 56.9zM275.8 9.8c7.2 0 7.6.1 7.6 2.4v15.7h12.4c1.7 0 2.2.3 2.2 6.2v.8c0 5.9-.5 6.2-2.2 6.2h-12.4v28.2c0 4.8.8 7.2 5.1 7.2 2.3 0 4.2-.5 6.1-1.1 2-.9 2.8.2 4.2 5.1l.3 1.2c1.5 5.4 1 5.9-.9 6.8-3.9 1.8-9 2.8-13.8 2.8-15.3 0-19.6-7.7-19.6-21.1v-29h-7.2c-1.8 0-2.2-.3-2.2-6.2v-.8c0-5.9.4-6.2 2.2-6.2h8.1c.8-5 2.4-12.1 3.3-15.7.7-2.1 1-2.5 6.8-2.5m-40 18.1c8.4 0 9.1.8 9.1 2.6v57.1c0 1.9-.8 2.5-9.1 2.5h-.5c-9.2 0-9.5-.6-9.5-2.5V30.5c0-1.9.2-2.6 9.5-2.6h.5zM235.3 0c6 0 10.4 4.7 10.4 10.1 0 5.3-4.4 10-10.4 10s-10.5-4.7-10.5-10c.1-5.3 4.5-10.1 10.5-10.1zM4.4 81.2c-4 0-4.4-1.4-4.4-11.7v-1.8c0-10.4.4-11.8 4.4-11.8h92.5c4 0 4.4 1.5 4.4 11.8v1.8c0 10.4-.4 11.7-4.4 11.7H4.4zm92.5-71c4 0 4.4 1.4 4.4 11.8v1.7c0 10.5-.4 11.9-4.4 11.9H4.4c-4 0-4.4-1.4-4.4-11.9V22c0-10.4.4-11.8 4.4-11.8h92.5" style="fill:#e3002c"/></svg>