<svg xmlns="http://www.w3.org/2000/svg" data-name="Layer 1" viewBox="0 0 1000 362"><path d="M481.36 155.93c-28.26 0-36.57 16.83-36.65 17l-.63 1.33-.81-1.23c-7.6-11.49-18.53-17.09-36.76-17.09-28.26 0-36.58 16.83-36.65 17l-.63 1.3-9.42-15.37H340V271h30.77v-55.59c0-21.71 7.43-31.82 23.41-31.82 14.11 0 20.69 8.4 20.69 26.44V271h30.73v-56.3c0-21.21 7.29-31.08 22.92-31.08 9.09 0 21.18 2.77 21.18 26.68V271h30.76v-69.78c0-31.31-12.23-45.29-39.1-45.29ZM290.1 214.46c0 14.61-4.53 24-11.61 28.52-3.48 2.19-9 3.3-14.25 3.3-17.73 0-22.13-10.12-22.13-26.69V158.9h-30.76v69.75c0 31.31 15.56 45.26 43.24 45.26 29.37 0 37-18.28 37-18.28L301 271h19.82V158.9H290.1Zm476.58-58.53c-18.11 0-33.59 6-44.74 17.46-10.46 10.71-16.22 25.46-16.22 41.54s5.76 30.82 16.22 41.53c11.15 11.43 26.63 17.46 44.74 17.46 36 0 61.22-24.25 61.22-59s-25.18-58.99-61.22-58.99Zm-.12 91.85c-17.47 0-30.15-13.82-30.15-32.85 0-18.73 13-32.86 30.15-32.86 17.47 0 30.64 14.13 30.64 32.86 0 19.07-12.88 32.85-30.64 32.85ZM123 113.8H91V271h109.72v-32H123ZM536 271h32V158.86h-32Zm333.47-96.75L860 158.86h-19.79V271H871v-42.31c0-14.61 2.72-23.71 11.43-31.55 11.15-10 26.55-9.83 26.55-9.83v-31.38c-32.98 0-39.53 18.3-39.53 18.3ZM529.19 113.8 552 136.56l22.76-22.76L552 91ZM651.67 156c-29.36 0-37 18.28-37 18.28l-9.43-15.37h-19.83V271h30.76v-55.59c0-14.61 4.53-24 11.6-28.51 3.47-2.2 9-3.31 14.26-3.31 17.72 0 22.12 10.12 22.12 26.68V271h30.76v-69.78c0-31.31-15.55-45.22-43.24-45.22Z" style="fill:#471335"/></svg>