<svg xmlns="http://www.w3.org/2000/svg" viewBox="0 0 236 16"><path d="M17.86 15.5v-.56c.46 0 .78-.18.96-.53.18-.35.28-.94.28-1.75V3.38c0-.81-.1-1.4-.28-1.75-.18-.34-.5-.52-.96-.52V.54H28.6c.66 0 1.1-.12 1.32-.37l1.15 5.24-.5.16a4.74 4.74 0 0 0-1.78-2.58 5.06 5.06 0 0 0-3.04-.95c-.62 0-1.08.07-1.38.21a1 1 0 0 0-.56.64c-.08.28-.12.7-.12 1.25v1.3h1.33a3.6 3.6 0 0 0 1.74-.34c.39-.23.59-.73.59-1.5l.44-.08.99 5.78-.45.04a4.47 4.47 0 0 0-1.1-1.68 2.4 2.4 0 0 0-1.02-.59c-.36-.1-.8-.14-1.3-.14h-1.22v4.39l-.02.55c0 .81.18 1.38.55 1.68.36.3.9.45 1.64.45 2.58 0 4.55-1.4 5.9-4.23l.47.19-1.9 5.9c-.24-.24-.7-.36-1.35-.36zM39.91 2.04c-.56 0-.92.18-1.06.53-.14.35-.21.86-.21 1.52v7.4c0 .6.03 1.08.09 1.41.05.34.2.6.43.8.23.2.59.3 1.07.3.46 0 .87-.07 1.26-.2a3.2 3.2 0 0 0 1.02-.6 4.84 4.84 0 0 0 1.38-2.07c.3-.83.44-1.7.44-2.59a9.33 9.33 0 0 0-1.08-4.3 4.72 4.72 0 0 0-1.76-1.82c-.48-.26-1-.38-1.58-.38zm1.2 13.46h-8.3v-.56c.46 0 .78-.18.96-.53.18-.35.27-.94.27-1.75V3.38c0-.81-.09-1.4-.27-1.75-.18-.34-.5-.52-.96-.52V.54h7.13c.56 0 1.08.03 1.55.06l.23.02c.52.04 1.04.13 1.56.25a7.06 7.06 0 0 1 2.91 1.42 7.38 7.38 0 0 1 2.13 2.74 8.18 8.18 0 0 1 .22 6.38c-.37.93-.9 1.72-1.62 2.36-1.21 1.1-3.02 1.67-5.43 1.73h-.39zM3.1 3.56v8.99c0 .84.1 1.44.3 1.81.19.37.54.56 1.04.58v.56H0v-.56c.45 0 .76-.18.93-.53.18-.35.26-.93.26-1.75V3.38c0-.82-.08-1.4-.26-1.75-.17-.35-.48-.52-.93-.52V.54h7.56v.57c-.35.1-.52.28-.52.55 0 .11.05.33.15.65l.23.57 1.32 3.05 1.62-3.23c.23-.53.35-.88.35-1.04a.54.54 0 0 0-.37-.55V.54h7.1v.57c-.45 0-.77.18-.95.53-.2.35-.28.93-.28 1.74v9.28c0 .8.09 1.4.28 1.74.18.36.5.54.95.54v.56h-7.1v-.56c.45 0 .78-.18.98-.54.2-.35.3-.93.3-1.74v-9.1l-4.31 8.96zm89.75-.18c0-1.52-.46-2.27-1.37-2.27V.54h4.5v.57c-.45 0-.76.18-.95.53-.19.35-.28.93-.28 1.74v9.25c0 .82.1 1.4.28 1.75.19.35.5.53.95.53v.57h-4.5v-.54c.76-.13 1.14-.56 1.14-1.3 0-.48-.11-.92-.34-1.3-.22-.4-.55-.83-.98-1.32l-6.66-7.78v9.42c0 .8.09 1.39.27 1.74.18.36.5.54.94.54v.56H81.5v-.56c.46 0 .77-.18.96-.53.18-.35.27-.94.27-1.75V3.38c0-.81-.09-1.4-.27-1.75-.19-.35-.5-.52-.96-.52V.54h8.57v.57c-.4.11-.6.31-.6.61 0 .27.3.76.9 1.46l2.48 3.07zM81.05 15.5H74v-.56c.46 0 .78-.18.96-.53.18-.35.27-.94.27-1.75V3.38c0-.81-.09-1.4-.27-1.75-.18-.35-.5-.52-.96-.52V.54h7.07v.57c-.45 0-.77.18-.96.53-.19.36-.28.94-.28 1.74v9.28c0 .8.1 1.38.28 1.74.19.36.5.54.96.54zm-9.21.5a.73.73 0 0 0-.41-.3 2.94 2.94 0 0 0-.67-.06l-3.2.23c-1.26 0-2.45-.17-3.6-.52a9.34 9.34 0 0 1-3.03-1.55c-.9-.7-1.6-1.55-2.1-2.59a7.93 7.93 0 0 1-.76-3.53c0-1.18.22-2.25.64-3.19a6.55 6.55 0 0 1 1.78-2.37A7.92 7.92 0 0 1 63.13.67c1-.33 2.07-.5 3.2-.5.95 0 2.02.12 3.23.35.35.06.63.1.82.1.52 0 .9-.21 1.12-.62l1.28 6.46-.47.13a8.63 8.63 0 0 0-1.13-2.21 5.94 5.94 0 0 0-1.73-1.65 4.17 4.17 0 0 0-4.52.1 4.41 4.41 0 0 0-1.44 1.9 6.53 6.53 0 0 0-.49 2.5c0 .8.12 1.59.34 2.37.23.79.55 1.49.98 2.09a5.47 5.47 0 0 0 4.31 2.25 4.64 4.64 0 0 0 4.46-3.1l.52.19zm-14.55-.5h-7.06v-.56c.45 0 .77-.18.95-.53.19-.35.28-.94.28-1.75V3.38c0-.81-.1-1.4-.28-1.75-.18-.35-.5-.52-.95-.52V.54h7.06v.57c-.45 0-.76.18-.95.53-.2.36-.29.94-.29 1.74v9.28a4 4 0 0 0 .29 1.74c.19.36.5.54.95.54zm47.16-13.4c-.54 0-1.01.19-1.42.55-.42.36-.74.83-1 1.4a7.8 7.8 0 0 0-.52 3.09c0 1.66.24 3.08.7 4.25.3.72.69 1.32 1.2 1.81a2.45 2.45 0 0 0 1.74.74c.57 0 1.08-.19 1.52-.55.43-.37.75-.85.97-1.43.3-.76.45-1.77.45-3 0-1.72-.21-3.13-.63-4.26-.17-.45-.41-.87-.7-1.26a3.8 3.8 0 0 0-1.03-.96 2.47 2.47 0 0 0-1.28-.37zm-2.83 13.28a6.64 6.64 0 0 1-4-3.19 7.99 7.99 0 0 1-.78-2.03 9.35 9.35 0 0 1-.26-2.18c0-1.2.21-2.28.63-3.25a7.07 7.07 0 0 1 1.77-2.47 7.8 7.8 0 0 1 2.64-1.55 9.76 9.76 0 0 1 3.18-.53h.08c.72 0 1.42.07 2.11.2.7.13 1.36.35 2 .64a6.78 6.78 0 0 1 3.44 3.8 9.49 9.49 0 0 1 .34 5.4 7.86 7.86 0 0 1-.75 1.94c-.33.6-.74 1.14-1.22 1.6a7.23 7.23 0 0 1-2.7 1.56 9.97 9.97 0 0 1-3.22.55h-.08c-1.08-.01-2.14-.17-3.18-.5zm24.82-10.34-.47.07a4.5 4.5 0 0 0-.67-1.19c-.3-.38-.62-.71-1-1a4.68 4.68 0 0 0-1.23-.68 3.75 3.75 0 0 0-1.32-.24c-.55 0-1.08.16-1.56.48-.48.33-.72.76-.72 1.32 0 .48.18.83.53 1.04.36.21.9.44 1.62.68l2.63.8c.74.23 1.39.5 1.94.83.54.32.98.74 1.3 1.27.32.52.48 1.17.48 1.94 0 1.73-.8 3.12-2.38 4.16a8.8 8.8 0 0 1-5.04 1.35c-.85 0-1.9-.12-3.14-.35a8.9 8.9 0 0 0-1.48-.22c-.44 0-.84.18-1.21.54l-.5-6.34.5-.07c.14.87.46 1.66.95 2.36a5.09 5.09 0 0 0 5.75 2.03c.46-.15.84-.39 1.15-.73.31-.33.47-.77.47-1.3 0-.54-.19-.94-.56-1.19-.37-.24-.89-.47-1.57-.7l-2.27-.74a8.14 8.14 0 0 1-2.6-1.23 3.67 3.67 0 0 1-1.32-2.75 4.86 4.86 0 0 1 2.06-3.77A7.19 7.19 0 0 1 121 .18c.5 0 1.27.1 2.3.3.64.12 1.02.17 1.17.17.63 0 1.1-.18 1.39-.54zm20.89-3c-.71 0-1.2.11-1.44.34-.15.16-.22.5-.22 1.05v2.93a8.9 8.9 0 0 0 1.85-.67c.48-.23.9-.53 1.25-.89.4-.4.6-.87.6-1.4 0-.48-.2-.83-.62-1.04-.37-.19-.78-.3-1.23-.32h-.2zm-1.66 5.95v4.5c0 .45.02.77.07.96.05.2.17.34.35.42.19.1.5.13.93.13a4.49 4.49 0 0 0 1.71-.35c.5-.23.9-.58 1.18-1.05.28-.46.42-1.02.42-1.69 0-.8-.21-1.52-.65-2.14a5.07 5.07 0 0 0-1.77-1.54l-.39.13zm-5.83 7.51v-.56c.45 0 .77-.18.96-.53.18-.35.28-.94.28-1.75V3.38c0-.81-.1-1.4-.28-1.75-.19-.34-.5-.52-.96-.52V.54h9.93c.78 0 1.44.05 1.99.12.54.08 1.02.28 1.43.6.41.34.62.84.62 1.53 0 .84-.37 1.54-1.1 2.1-.74.57-1.63 1.05-2.67 1.47.9.15 1.73.43 2.5.82.75.4 1.37.93 1.84 1.59.47.67.7 1.45.7 2.36 0 .77-.2 1.46-.58 2.07a5.11 5.11 0 0 1-3.54 2.15c-.72.1-1.54.15-2.45.15zm22.91-11.93-1.41 4.27c.52 0 1.04.1 1.56.28.51.19 1.04.47 1.56.83l-1.56-4.91zm-2.1 6.2-.81 2.32a6.85 6.85 0 0 0-.43 1.84c0 .59.34.92 1.03 1v.57h-4.93v-.56c.38-.1.7-.27.95-.53.26-.26.46-.54.6-.83.15-.3.34-.7.56-1.24l3.52-9.43c.25-.6.38-1.02.38-1.23 0-.33-.17-.52-.5-.57V.54h6.55v.57c-.34.04-.51.23-.51.57 0 .07.11.48.35 1.2l.88 2.72 1.33 3.98.93 2.78.3.88c.1.26.21.53.34.77.14.25.31.45.5.62.2.17.45.27.72.3v.57h-7.73v-.56c.37-.03.67-.17.9-.4.22-.24.33-.55.33-.93 0-.52-.19-1.03-.57-1.56a5.17 5.17 0 0 0-1.31-1.28 5.25 5.25 0 0 0-1.13-.6 6.15 6.15 0 0 0-2.26-.4zm23.64-6.39c0-1.52-.45-2.27-1.36-2.27V.54h4.5v.57c-.45 0-.77.18-.95.53a4 4 0 0 0-.28 1.74v9.25a4 4 0 0 0 .28 1.75c.18.35.5.53.95.53v.57h-4.5v-.54c.76-.13 1.14-.56 1.14-1.3 0-.48-.11-.92-.34-1.3-.23-.4-.56-.83-.98-1.32l-6.67-7.78v9.42c0 .8.1 1.39.28 1.74.18.36.49.54.94.54v.56h-4.35v-.56c.45 0 .77-.18.95-.53.19-.35.28-.94.28-1.75V3.38c0-.81-.1-1.4-.28-1.75-.18-.35-.5-.52-.95-.52V.54h8.56v.57c-.39.11-.59.31-.59.61 0 .27.3.76.9 1.46l2.47 3.07zm20.09 11.55h.04c.36-.1.65-.27.9-.52.26-.26.46-.54.61-.83.15-.3.33-.7.55-1.24L210 2.91c.25-.6.38-1.02.38-1.23 0-.33-.17-.52-.5-.57V.54h1.88v3.5l-.15-.47-1.41 4.27c.52 0 1.04.1 1.56.28v2.05a6.18 6.18 0 0 0-2.26-.4l-.8 2.32a6.85 6.85 0 0 0-.43 1.84c0 .59.34.92 1.03 1v.57h-4.93v-.02h.1v-.54h-.09zm0 0v.55h-7.56v-.54c.68-.03 1.03-.3 1.03-.78 0-.4-.14-.98-.41-1.76a16.1 16.1 0 0 0-.78-1.92c-.48-.99-1.19-2.06-2.15-3.21l-.79.72v4.67c0 .78.12 1.36.34 1.73.23.36.57.55 1.03.55v.56h-7.2v-.56c.46 0 .78-.18.96-.53.19-.35.28-.94.28-1.75V3.38c0-.81-.1-1.4-.28-1.75-.18-.35-.5-.52-.95-.52V.54h7.03l.03.57c-.46 0-.77.2-.96.57-.18.37-.28.98-.28 1.81v2.62l2.4-2.18c.2-.18.4-.4.63-.63.23-.24.43-.48.6-.72.19-.25.27-.45.27-.63a.7.7 0 0 0-.32-.6 1.4 1.4 0 0 0-.73-.24V.54h6.5v.57c-1.3.2-2.7.94-4.2 2.23l-1.16 1c.8.82 1.5 1.69 2.1 2.6a21.7 21.7 0 0 1 1.55 2.9c.45 1 .88 2.11 1.29 3.32.21.6.44 1.04.7 1.34.22.27.57.42 1.03.43zm30.1-9.89-.48.07a4.56 4.56 0 0 0-.66-1.19c-.3-.38-.63-.71-1.01-1a4.63 4.63 0 0 0-1.23-.68 3.75 3.75 0 0 0-1.31-.24c-.56 0-1.08.16-1.56.48-.49.33-.73.76-.73 1.32 0 .48.18.83.53 1.04.36.21.9.44 1.63.68l2.62.8c.74.23 1.4.5 1.94.83.55.32.98.74 1.3 1.27.32.52.48 1.17.48 1.94 0 1.73-.8 3.12-2.38 4.16a8.8 8.8 0 0 1-5.04 1.35c-.84 0-1.9-.12-3.14-.35a8.93 8.93 0 0 0-1.48-.22c-.44 0-.84.18-1.2.54l-.5-6.34.5-.07c.13.87.45 1.66.94 2.36a5.1 5.1 0 0 0 5.75 2.03c.46-.15.85-.39 1.15-.73.31-.33.47-.77.47-1.3 0-.54-.18-.94-.56-1.19-.37-.24-.89-.47-1.57-.7l-2.27-.74a8.12 8.12 0 0 1-2.6-1.23 3.65 3.65 0 0 1-1.05-4.18 4.9 4.9 0 0 1 1.8-2.34 7.17 7.17 0 0 1 4.2-1.23c.52 0 1.28.1 2.32.3.63.12 1.02.17 1.16.17.63 0 1.1-.18 1.4-.54zm-21.6 5.73c.5.33.94.76 1.32 1.28.38.53.57 1.04.57 1.56 0 .38-.1.7-.34.93-.22.23-.52.37-.89.4v.56h7.73v-.56a1.36 1.36 0 0 1-.71-.31c-.2-.17-.37-.37-.5-.62-.14-.24-.25-.5-.35-.77l-.3-.88-.93-2.78-1.33-3.98-.88-2.71c-.24-.73-.35-1.14-.35-1.21 0-.34.17-.53.51-.57V.54h-4.67v3.5l1.56 4.91a6.54 6.54 0 0 0-1.56-.83v2.05c.4.15.78.36 1.13.6z"/></svg>