<svg xmlns="http://www.w3.org/2000/svg" xml:space="preserve" viewBox="0 0 1008.493 442.773"><path d="m6662.32 1029.22-623.69-.16v414.29h623.69c110.34 0 199.71-89.37 199.71-207.07 0-117.86-89.37-207.06-199.71-207.06zm-623.69 1294.19h509.9c117.39 0 212.38-92.65 212.38-199.24 0-106.74-94.99-199.56-212.38-199.56h-509.9zm-641.4-1799.101h1459.79c390.33 0 706.65 235.242 706.65 611.961 0 293.93-192.36 488.95-462.02 574.71 0 0-11.12 2.66-26.15 3.28 15.03 1.42 26.15 4.54 26.15 4.54 154.47 61.21 325.54 223.98 325.54 501.16 0 351.52-310.99 575.8-694.91 575.8H5397.23ZM4927.71.012h141.17V3320.77h-141.17zm-2559.78 0h141.17V3320.77h-141.17ZM4655.69 2795.76H2838.32V524.309h1850.71v523.681H3476.54v365.93h835.29v501.15h-835.29v361.69h1179.15Zm-2598.51-321.48-407.71-304.41c-192.51 165.58-440.58 198.14-577.53 198.14-138.506 0-282.885-39.59-305.268-138.98-21.68-96.41 67.848-171.38 221.855-213.17 175.603-47.42 335.483-89.2 581.743-159.49 366.24-104.54 616.66-262.93 616.66-630.42 0-506.47-449.5-768.93-1051.76-768.93C533 457.02 122.629 770.832 0 917.148l430.949 322.262C733.727 975.531 944.23 938.289 1120.15 938.289c201.9 0 390.65 43.352 414.92 156.811 19.71 91.73-56.36 164.66-228.35 204.57-194.56 44.92-358.814 81.08-542.005 129.27-496.692 130.38-636.766 419.14-636.766 678.48 0 357.17 332.508 724.02 940.551 724.02 623.54 0 988.68-357.16 988.68-357.16" style="fill:#231f20;fill-opacity:1;fill-rule:nonzero;stroke:none" transform="matrix(.13333 0 0 -.13333 0 442.773)"/></svg>