<svg xmlns="http://www.w3.org/2000/svg" viewBox="0 0 160 41"><path fill="#002D64" d="M153.08 23.646c.148.185.328.38.544.584.216.202.474.391.774.563.299.17.635.312 1.007.424.373.111.79.166 1.249.166.477 0 .922-.07 1.325-.215a3.18 3.18 0 0 0 1.05-.605c.297-.26.524-.56.69-.904a2.54 2.54 0 0 0 .25-1.125c0-.472-.078-.879-.23-1.215a2.668 2.668 0 0 0-.607-.864 3.215 3.215 0 0 0-.877-.576 4.882 4.882 0 0 0-1.036-.333 6.563 6.563 0 0 1-.937-.244 2.105 2.105 0 0 1-.588-.299.992.992 0 0 1-.304-.359c-.06-.13-.09-.28-.09-.446 0-.111.028-.23.084-.355a.943.943 0 0 1 .255-.339c.117-.104.26-.187.434-.25.175-.065.381-.097.622-.097.267 0 .507.036.717.111.212.076.395.159.547.25.152.094.278.189.379.285.101.097.175.166.22.2l1.145-1.085a9.376 9.376 0 0 0-.276-.311 2.53 2.53 0 0 0-.544-.439 3.828 3.828 0 0 0-.877-.39 4.245 4.245 0 0 0-1.257-.166c-.54 0-1.012.076-1.416.223a3.05 3.05 0 0 0-1 .592 2.33 2.33 0 0 0-.592.847 2.697 2.697 0 0 0-.041 1.903c.1.291.253.56.456.8a2.8 2.8 0 0 0 .768.624c.308.175.674.304 1.097.387.415.085.76.172 1.042.265.282.094.509.198.683.314.175.117.3.25.374.402.073.153.111.327.111.52 0 .353-.133.654-.394.904-.263.251-.665.376-1.206.376-.297 0-.562-.04-.794-.125a2.943 2.943 0 0 1-.637-.314 3.578 3.578 0 0 1-.509-.402 5.58 5.58 0 0 1-.394-.41l-1.217 1.128zm-7.827-2.306 1.23-3.6 1.215 3.6h-2.445zm-3.107 3.792h1.824l.8-2.348h3.423l.8 2.348h1.933l-3.493-9.268h-1.795l-3.492 9.268zm-9.331 0h1.739V21.88l.856-.958 2.802 4.21h2.098l-3.767-5.475 3.395-3.793h-1.974l-3.41 3.807v-3.807h-1.739v9.268zm-11.499 0h1.698v-6.67l4.501 6.67h1.713v-9.268h-1.697v6.587l-4.46-6.587h-1.755v9.268zm-8.366-3.792 1.23-3.6 1.215 3.6h-2.445zm-3.106 3.792h1.824l.8-2.348h3.425l.798 2.348h1.932l-3.492-9.268h-1.794l-3.493 9.268zm-6.999-1.486v-2.628h1.476c.175 0 .363.02.567.057.201.036.387.102.558.2.17.097.312.233.428.405.115.17.173.395.173.673 0 .295-.06.53-.18.7a1.153 1.153 0 0 1-.444.389 1.72 1.72 0 0 1-.557.168c-.2.02-.381.034-.547.034h-1.474v.002zm0-4.087v-2.21h1.409c.165 0 .33.016.497.05.165.032.316.088.449.174a.98.98 0 0 1 .325.332c.083.138.124.314.124.528 0 .211-.04.387-.118.527a1.037 1.037 0 0 1-.318.348 1.21 1.21 0 0 1-.449.193 2.287 2.287 0 0 1-.51.056h-1.409v.002zm-1.671 5.573h3.162c.487 0 .94-.044 1.36-.133a3.032 3.032 0 0 0 1.09-.444c.309-.208.55-.48.726-.82.174-.339.263-.756.263-1.255 0-.409-.07-.755-.209-1.036a2.221 2.221 0 0 0-.503-.688 2.08 2.08 0 0 0-.627-.39 2.479 2.479 0 0 0-.58-.153c.091 0 .217-.04.379-.117.161-.08.32-.2.482-.363.16-.163.3-.363.42-.605s.18-.522.18-.847a2.3 2.3 0 0 0-.194-.95 2.169 2.169 0 0 0-.565-.766 2.717 2.717 0 0 0-.93-.512 4.016 4.016 0 0 0-1.29-.19h-3.162v9.269h-.002zm-49.655-3.42c0 .501.081.972.243 1.41.16.443.396.828.711 1.16.312.335.695.598 1.153.795.455.193.979.289 1.565.289h.234a4.105 4.105 0 0 0-.46.688 1.51 1.51 0 0 0-.186.716c0 .333.111.602.336.806.226.204.579.306 1.058.306.238 0 .497-.047.78-.14.279-.093.54-.217.778-.376l-.4-1.042c-.11.074-.221.133-.332.174a.992.992 0 0 1-.357.06c-.24 0-.36-.132-.36-.402 0-.213.073-.42.221-.618.147-.2.42-.425.815-.675.184-.111.378-.25.579-.416a2.85 2.85 0 0 0 .554-.618c.167-.244.304-.542.413-.89.11-.346.165-.756.165-1.23v-5.85h-1.698v5.547c0 .703-.154 1.26-.463 1.673-.308.412-.84.618-1.595.618-.377 0-.693-.053-.952-.159a1.498 1.498 0 0 1-.621-.46 1.843 1.843 0 0 1-.337-.721 3.995 3.995 0 0 1-.103-.951V15.86h-1.74v5.852zm-5.26 3.42H48v-9.268h-1.74v9.268zm-9.29 0h6.282v-1.556h-4.543v-7.71h-1.74v9.266h.001zm-11.03-3.42c0 .52.084 1.002.249 1.448.167.444.41.83.732 1.159.321.329.716.588 1.181.777.464.19.996.285 1.595.285s1.13-.094 1.594-.285c.468-.19.86-.448 1.181-.777a3.25 3.25 0 0 0 .733-1.159c.167-.446.248-.928.248-1.448v-5.848H31.71v5.546c0 .351-.034.669-.102.95-.07.282-.182.524-.338.723a1.5 1.5 0 0 1-.62.459c-.259.106-.576.159-.953.159-.378 0-.695-.053-.954-.16a1.492 1.492 0 0 1-.62-.458 1.82 1.82 0 0 1-.338-.723 3.995 3.995 0 0 1-.103-.95v-5.546h-1.74v5.848h-.003zm-8.022-.372 1.23-3.6 1.215 3.6h-2.445zm-3.104 3.792h1.822l.802-2.348h3.421l.802 2.348h1.93l-3.492-9.268h-1.794l-3.49 9.268zm-4.432 0h1.741v-9.268h-1.74v9.268zM2.928 15.17H4.46L5.98 13H4.542L3.7 14.14 2.845 13H1.412l1.516 2.17zM0 23.646c.146.185.329.38.546.584.216.202.474.391.772.563.299.17.635.312 1.009.424.373.111.788.166 1.249.166.478 0 .922-.07 1.325-.215a3.18 3.18 0 0 0 1.05-.605c.295-.26.524-.56.691-.904a2.55 2.55 0 0 0 .248-1.125c0-.472-.075-.879-.225-1.215a2.673 2.673 0 0 0-.609-.864 3.187 3.187 0 0 0-.877-.576 4.936 4.936 0 0 0-1.034-.333 6.596 6.596 0 0 1-.94-.244 2.065 2.065 0 0 1-.585-.299.992.992 0 0 1-.305-.359c-.06-.13-.088-.28-.088-.446a.965.965 0 0 1 .338-.694c.115-.104.261-.187.434-.25.175-.065.381-.097.622-.097.264 0 .505.036.717.111.212.076.394.159.547.25.152.094.277.189.377.285.103.097.175.166.223.2l1.146-1.085a68.067 68.067 0 0 0-.276-.311 2.594 2.594 0 0 0-.547-.439 3.848 3.848 0 0 0-.875-.39 4.228 4.228 0 0 0-1.256-.166c-.543 0-1.016.076-1.416.223-.4.15-.734.346-1 .592a2.317 2.317 0 0 0-.596.847c-.128.32-.192.656-.192 1.007 0 .308.05.605.152.896.102.291.256.56.457.8.2.24.458.448.766.624a3.62 3.62 0 0 0 1.098.387c.416.085.761.172 1.043.265.281.094.507.198.683.314.175.117.299.25.374.402.073.153.11.327.11.52a1.2 1.2 0 0 1-.394.904c-.262.251-.664.376-1.207.376a2.31 2.31 0 0 1-.793-.125 2.886 2.886 0 0 1-.634-.314 3.727 3.727 0 0 1-.513-.402 6.001 6.001 0 0 1-.394-.41L0 23.645zm77.8-1.494V11.073s.052-.9-.224-1.33c-.254-.395-.804-.82-1.912-.694-2.177.25-4.526 2.724-4.975 3.542-.952 1.735-1.297 4.454 1.326 6.446 1.876 1.427 5.784 3.115 5.784 3.115m.001 7.595c0-.437.052-2.642-1.864-3.971-1.34-.93-3.26-1.626-4.922-2.562a7.97 7.97 0 0 1-1.482-1.068v10.875s-.045.671.15 1.208c.348.962 1.296 2.083 3.5 1.474.32-.087.615-.193.89-.315 1.845-.834 3.727-2.267 3.727-5.64l-1.863 32.31m5.409-30.372V19.472s2.903-1.477 3.632-1.753c2.392-.905 5.536.08 5.712 4.078.058 1.312-.246 2.565-.497 3.17-.504 1.211-1.347 2.432-2.956 3.508-1.948 1.302-5.891 3.211-5.891 3.211m2.232-26.44c-1.834.404-2.234 1.412-2.234 2.956v7.518s4.206-1.885 4.997-2.386c4.565-2.89 2.066-9.16-2.763-8.088"/></svg>