<svg xmlns="http://www.w3.org/2000/svg" xmlns:xlink="http://www.w3.org/1999/xlink" viewBox="0 0 216 48"><defs><radialGradient id="Ny_övertoningsruta_3" cx="198.461" cy="10.237" r="32.918" data-name="Ny övertoningsruta 3" gradientTransform="translate(-1.436 2.893)" gradientUnits="userSpaceOnUse"><stop offset="0" stop-color="#ffe178"/><stop offset=".184" stop-color="#ffd05f"/><stop offset=".4" stop-color="#ffbe46"/><stop offset=".6" stop-color="#ff9b0f"/><stop offset=".799" stop-color="#f7780f"/><stop offset=".9" stop-color="#f3640f"/><stop offset="1" stop-color="#e65f19"/></radialGradient><radialGradient id="Namnlös_övertoning_9" cx="196.771" cy="8.767" r="36.955" data-name="Namnlös övertoning 9" gradientUnits="userSpaceOnUse"><stop offset="0" stop-color="#ffc85a"/><stop offset=".269" stop-color="#f59619"/><stop offset=".436" stop-color="#e56b16"/><stop offset=".555" stop-color="#dc5014"/><stop offset=".785" stop-color="#ba3f18"/><stop offset=".825" stop-color="#b43c19"/></radialGradient><radialGradient xlink:href="#Ny_övertoningsruta_3" id="Ny_övertoningsruta_3-2" cx="194.521" cy="9.315" r="35.704"/><radialGradient xlink:href="#Ny_övertoningsruta_3" id="Ny_övertoningsruta_3-3" cx="194.458" cy="9.284" r="35.813"/><radialGradient xlink:href="#Ny_övertoningsruta_3" id="Ny_övertoningsruta_3-4" cx="194.438" cy="9.243" r="35.759"/><radialGradient xlink:href="#Ny_övertoningsruta_3" id="Ny_övertoningsruta_3-5" cx="194.557" cy="9.256" r="35.703"/><radialGradient xlink:href="#Ny_övertoningsruta_3" id="Ny_övertoningsruta_3-6" cx="193.16" cy="7.643" r="39.559"/><radialGradient xlink:href="#Ny_övertoningsruta_3" id="Ny_övertoningsruta_3-7" cx="195.24" cy="8.851" r="36.516"/><radialGradient xlink:href="#Ny_övertoningsruta_3" id="Ny_övertoningsruta_3-8" cx="193.87" cy="8.053" r="37.963"/><radialGradient xlink:href="#Ny_övertoningsruta_3" id="Ny_övertoningsruta_3-9" cx="194.228" cy="9.36" r="35.903"/><radialGradient xlink:href="#Ny_övertoningsruta_3" id="Ny_övertoningsruta_3-10" cx="193.825" cy="8.762" r="37.355"/><radialGradient xlink:href="#Ny_övertoningsruta_3" id="Ny_övertoningsruta_3-11" cx="195.035" cy="9.052" r="36.492"/><radialGradient xlink:href="#Ny_övertoningsruta_3" id="Ny_övertoningsruta_3-12" cx="193.921" cy="9.308" r="37.533"/><radialGradient xlink:href="#Ny_övertoningsruta_3" id="Ny_övertoningsruta_3-13" cx="194.3" cy="9.101" r="36.298"/><radialGradient xlink:href="#Ny_övertoningsruta_3" id="Ny_övertoningsruta_3-14" cx="194.39" cy="9.154" r="36.788"/><radialGradient xlink:href="#Ny_övertoningsruta_3" id="Ny_övertoningsruta_3-15" cx="194.324" cy="9.392" r="36.381"/><radialGradient xlink:href="#Ny_övertoningsruta_3" id="Ny_övertoningsruta_3-16" cx="194.496" cy="9.439" r="37.243"/><radialGradient xlink:href="#Ny_övertoningsruta_3" id="Ny_övertoningsruta_3-17" cx="194.323" cy="9.493" r="36.278"/><radialGradient xlink:href="#Ny_övertoningsruta_3" id="Ny_övertoningsruta_3-18" cx="194.47" cy="9.387" r="36.414"/><radialGradient xlink:href="#Ny_övertoningsruta_3" id="Ny_övertoningsruta_3-19" cx="194.514" cy="9.587" r="37.103"/><radialGradient xlink:href="#Ny_övertoningsruta_3" id="Ny_övertoningsruta_3-20" cx="194.6" cy="9.57" r="36.202"/><radialGradient xlink:href="#Ny_övertoningsruta_3" id="Ny_övertoningsruta_3-21" cx="194.704" cy="9.201" r="36.767"/><radialGradient xlink:href="#Ny_övertoningsruta_3" id="Ny_övertoningsruta_3-22" cx="194.307" cy="9.267" r="36.14"/><radialGradient xlink:href="#Ny_övertoningsruta_3" id="Ny_övertoningsruta_3-23" cx="194.69" cy="9.405" r="36.559"/><radialGradient xlink:href="#Ny_övertoningsruta_3" id="Ny_övertoningsruta_3-24" cx="194.921" cy="8.918" r="36.922"/><radialGradient xlink:href="#Ny_övertoningsruta_3" id="Ny_övertoningsruta_3-25" cx="194.72" cy="9.511" r="36.048"/><radialGradient xlink:href="#Ny_övertoningsruta_3" id="Ny_övertoningsruta_3-26" cx="195.193" cy="9.047" r="36.927"/><radialGradient xlink:href="#Ny_övertoningsruta_3" id="Ny_övertoningsruta_3-27" cx="194.764" cy="9.096" r="36.228"/><radialGradient xlink:href="#Ny_övertoningsruta_3" id="Ny_övertoningsruta_3-28" cx="195.341" cy="9.182" r="37.539"/><radialGradient xlink:href="#Ny_övertoningsruta_3" id="Ny_övertoningsruta_3-29" cx="194.714" cy="9.178" r="36.583"/><radialGradient xlink:href="#Ny_övertoningsruta_3" id="Ny_övertoningsruta_3-30" cx="195.092" cy="8.424" r="36.967"/><radialGradient xlink:href="#Ny_övertoningsruta_3" id="Ny_övertoningsruta_3-31" cx="195.027" cy="8.881" r="36.457"/><radialGradient xlink:href="#Ny_övertoningsruta_3" id="Ny_övertoningsruta_3-32" cx="194.986" cy="8.887" r="36.674"/><radialGradient xlink:href="#Ny_övertoningsruta_3" id="Ny_övertoningsruta_3-33" cx="194.958" cy="8.595" r="36.862"/><radialGradient xlink:href="#Ny_övertoningsruta_3" id="Ny_övertoningsruta_3-34" cx="194.285" cy="8.202" r="37.822"/><radialGradient xlink:href="#Ny_övertoningsruta_3" id="Ny_övertoningsruta_3-35" cx="195.038" cy="8.342" r="37.232"/><radialGradient xlink:href="#Ny_övertoningsruta_3" id="Ny_övertoningsruta_3-36" cx="194.167" cy="8.174" r="37.627"/><radialGradient xlink:href="#Ny_övertoningsruta_3" id="Ny_övertoningsruta_3-37" cx="194.236" cy="8.653" r="36.945"/><radialGradient xlink:href="#Ny_övertoningsruta_3" id="Ny_övertoningsruta_3-38" cx="194.098" cy="8.598" r="36.729"/><radialGradient xlink:href="#Ny_övertoningsruta_3" id="Ny_övertoningsruta_3-39" cx="193.202" cy="7.348" r="39.002"/><linearGradient id="Namnlös_övertoning_4" x1="205.006" x2="179.063" y1="4.83" y2="43.069" data-name="Namnlös övertoning 4" gradientUnits="userSpaceOnUse"><stop offset=".023" stop-color="#ffe6a5"/><stop offset=".11" stop-color="#fcc677"/><stop offset=".288" stop-color="#f5871e"/><stop offset=".29" stop-color="#f5871e"/><stop offset=".564" stop-color="#e1690f"/><stop offset=".631" stop-color="#cc5c0e"/><stop offset=".799" stop-color="#9c3d0c"/><stop offset=".927" stop-color="#7e2a0b"/><stop offset="1" stop-color="#73230a"/></linearGradient><linearGradient id="Namnlös_övertoning_3" x1="180.037" x2="203.871" y1="41.766" y2="6.371" data-name="Namnlös övertoning 3" gradientUnits="userSpaceOnUse"><stop offset=".009" stop-color="#ffe6a0"/><stop offset=".106" stop-color="#fcc877"/><stop offset=".329" stop-color="#f5871e"/><stop offset=".331" stop-color="#f5871e"/><stop offset=".637" stop-color="#e1690f"/><stop offset=".651" stop-color="#db650f"/><stop offset=".759" stop-color="#ae490d"/><stop offset=".856" stop-color="#8e340b"/><stop offset=".936" stop-color="#7a280a"/><stop offset=".991" stop-color="#73230a"/></linearGradient><style>.cls-6{fill:#dc8730}.cls-7{fill:#8d4428}.cls-8{fill:#9f5024}.cls-9{fill:#ad5725}.cls-10{fill:#e48e33}.cls-11{fill:#db7b29}.cls-12{fill:#ffb560}.cls-13{fill:#bc6327}.cls-15{fill:#ffd68e}.cls-16{fill:#d57c3f}.cls-17{fill:#ffcd85}.cls-18{fill:#efa952}.cls-19{fill:#fdac4a}.cls-21{fill:#ffc378}.cls-22{fill:#ffce89}.cls-23{fill:#ffd79d}.cls-25{fill:#bf6b29}.cls-26{fill:#fcb664}.cls-28{fill:#d47429}.cls-29{fill:#e7944b}.cls-30{fill:#964c25}.cls-31{fill:#823d1e}.cls-32{fill:#6c2b13}.cls-35{fill:#7e3717}.cls-36{fill:#94441e}.cls-37{fill:#dd8732}.cls-42{fill:#56220c}.cls-43{fill:#f49e4d}.cls-48{fill:#a5572a}.cls-49{fill:#e69646}.cls-51{fill:#7a2c13}.cls-52{fill:#c27138}.cls-57{fill:#944428}.cls-58{fill:#ffc283}.cls-62{fill:#f29b40}.cls-63{fill:#b46027}.cls-102{fill:#f8a943}.cls-103{fill:#ec9c4b}.cls-104{fill:#b43c19}.cls-105{fill:#ff5f00}.cls-106{fill:none}</style></defs><g id="Lager_2" data-name="Lager 2"><g id="Lager_1-2" data-name="Lager 1"><path d="M213.2 24A21.2 21.2 0 1 1 192 2.8 21.2 21.2 0 0 1 213.2 24Z" style="fill:url(#Ny_övertoningsruta_3);fill-rule:evenodd"/><path d="M192 1a23 23 0 1 0 23 23 23 23 0 0 0-23-23Zm0 45a22 22 0 1 1 22-22 22 22 0 0 1-22 22Z" style="fill:url(#Namnlös_övertoning_4)"/><path d="M192 2a22 22 0 1 0 22 22 22 22 0 0 0-22-22Zm0 43a21 21 0 1 1 21-21 21 21 0 0 1-21 21Z" style="fill:url(#Namnlös_övertoning_3)"/><path d="M192 46.1A22.1 22.1 0 1 1 214.1 24 22.125 22.125 0 0 1 192 46.1Zm0-44A21.9 21.9 0 1 0 213.9 24 21.924 21.924 0 0 0 192 2.1Z" style="fill:#faaf5a"/><path d="M210.388 26.9c-.149.7-1.986.572-2.537.562a.921.921 0 0 0-.845.683 14.388 14.388 0 0 1-1.628.141c-1.661-.033-2.1-.647-2.1-.647-.754-.013-.813.666-1.527.89-.4.123-.908-.691-.908-.691a10 10 0 0 1-3.4-.245c-.469-.326-1.424-2.014-1.778-2.024a3.531 3.531 0 0 0-.552 0c-.5.056-.76.537-.7 1.326s.26 2.332.372 2.862c.212 1 2.132 1.419 2.948 1.843l.073.41c-.946-.124-3.2-.385-2.749.147.162.192.479.5.708.8v.342a9.995 9.995 0 0 0-3.765-.95 7.864 7.864 0 0 0-3.755.935l-.037-.376c.345-.321.557-.535.782-.768.322-.331-.7-.337-2.24-.253l.1-.417c.915-.273 2.339-.429 2.515-1.364.153-.812.345-2.992.345-2.992.133-1.236-.806-2-1.34-1.832a3.728 3.728 0 0 0-1.332.733c-.181.29.138.726.1 1.335-.019.347-1.131.364-2.424.281-.539-.035-1.47 1-1.7 1.042a8.73 8.73 0 0 1-1.068.07c-.289.01-.6-.579-1.11-.609-.285-.017-.693.562-.889.548a5.385 5.385 0 0 1-1.794-.53c-.179-.084.159-1.2.118-1.258a1.975 1.975 0 0 0-1.1.069c-.169.109-.644.537-.745.557a4.906 4.906 0 0 1-2.475.071 4.3 4.3 0 0 1 .242-1.518c.453-.461 1.359-1.228 1.222-1.484-.094-.174-.937-.732-.776-1a6.3 6.3 0 0 1 .361-.525c.213-.262.7.087.97-.064s.428-.614.535-.649a3.26 3.26 0 0 1 .833-.051c.177.01.442.738.575.74.319 0 .671.043.786-.17a3.21 3.21 0 0 0 .3-1.24c-.007-.424-1.214-.769-1.225-1s.376-1.492.591-1.564c.319-.106.893-.328.86-.531-.1-.621-.429-1.854-.263-2a9.723 9.723 0 0 1 1.066-.768c.207-.138.52.026.821.164a.825.825 0 0 0 1.078-.183c.128-.22.09-1.495.259-1.609.272-.182.7-.394.847-.477.19-.107.868.321.987.184.392-.454.623-.768.563-1a5.856 5.856 0 0 1-.331-1.616 5.241 5.241 0 0 1 .5-.958c.247-.324 1.147-.141 1.509-.453.5-.433.261-.838.91-.909a6.79 6.79 0 0 0 2.261-1.057 6.267 6.267 0 0 1 2.431.14c.309-.023.871-.524 1.141-.555a5.167 5.167 0 0 1 1.567.272c.226.1.258 1.108.783 1.288a6.617 6.617 0 0 0 1.253.328c1.068.136 1.382-.729 1.75-.639a2.457 2.457 0 0 1 1.294.944c.287.37-.205 1.7.484 1.99.87.365 1.793 1.335 1.721 1.609-.1.39-.549 1.156-.343 1.441.106.147.812-.041 1.087-.1a1.67 1.67 0 0 1 1.081.3 3.132 3.132 0 0 0 .76.791c.462.225 1.159.536 1.227.735.228.668-.317 1.591-.224 1.9.007.023.874.317.973.563a17.552 17.552 0 0 1-.033 1.789 2.4 2.4 0 0 1 1.364-.041c.362.132.514.578.667 1.117.041.143.5.213.552.328.272.651.246 1.082-.025 1.194-.6.25-2 .732-1.8 1.293a.7.7 0 0 0 .688.569 5.926 5.926 0 0 1 1.748.3 1.694 1.694 0 0 1 .81 1.491Z" style="fill:url(#Namnlös_övertoning_9);fill-rule:evenodd"/><path d="m206.849 18.4-.527.367a.3.3 0 0 1 .087.115l.507-.323a.576.576 0 0 0-.067-.159Z" class="cls-6"/><path d="m206.908 18.529-.509.33.007.014a1.086 1.086 0 0 1 .019.232l.506-.334v-.1a.528.528 0 0 0-.023-.142Z" class="cls-7"/><path d="m206.931 18.749-.506.335v.423l.511-.372-.005-.386Z" class="cls-8"/><path d="m206.935 19.112-.511.371c-.01.529-.043 1.2-.043 1.2l.039-.014.592-.747-.066.009c-.037.01-.01-.158-.011-.819Z" class="cls-9"/><path d="m204.3 14.677-.458.419c.075.094.175.218.265.311l.477-.395a2.3 2.3 0 0 1-.284-.335Z" class="cls-10"/><path d="m204.565 14.993-.476.393a1.811 1.811 0 0 0 .217.2l.482-.441a1 1 0 0 1-.223-.152Z" class="cls-11"/><path d="m206.989 19.928-.6.754a2.706 2.706 0 0 1 .416-.1l.592-.667a1.862 1.862 0 0 0-.408.013Z" class="cls-6"/><path d="M206.787 20.585c.053-.009.124-.02.19-.027l.564-.628a2.032 2.032 0 0 0-.164-.017ZM203.678 14.892c.049.057.124.153.185.229l.456-.421a6.104 6.104 0 0 0-.265-.319 1.1 1.1 0 0 0-.506-.291l-.574.525a1.367 1.367 0 0 1 .704.277Z" class="cls-12"/><path d="m192.749 7.571-.044-.578a4.088 4.088 0 0 0-.515.281l.049.6c.161-.09.361-.218.51-.303Z" class="cls-13"/><path d="m207.518 19.927-.563.634c.041 0 .108-.01.152-.012l.543-.6c-.037-.006-.095-.017-.132-.022Z" style="fill:#ffcb80"/><path d="m207.629 19.946-.545.6a1.667 1.667 0 0 1 .691.088l.352-.517a1.66 1.66 0 0 0-.498-.171Z" class="cls-15"/><path d="m204.453 15.683.153.075.5-.462-.19-.085a1.916 1.916 0 0 1-.157-.078l-.478.438a.844.844 0 0 0 .172.112Z" class="cls-12"/><path d="M193.024 7.46a1.487 1.487 0 0 1 .241 0l.033-.547a2.299 2.299 0 0 0-.22-.014 1.044 1.044 0 0 0-.4.1l.045.58a.908.908 0 0 1 .301-.119Z" class="cls-16"/><path d="m194.381 7.663.354-.445a8.6 8.6 0 0 0-1.458-.306l-.034.548a6.2 6.2 0 0 1 1.138.203Z" class="cls-17"/><path d="M194.56 7.725c.062.027.114.126.167.272l.387-.49a.564.564 0 0 0-.264-.252 2.53 2.53 0 0 0-.137-.044l-.355.445a1.778 1.778 0 0 1 .202.069Z" class="cls-18"/><path d="m194.871 8.407.411-.549a2.427 2.427 0 0 0-.181-.372l-.383.489c.045.118.097.287.153.432Z" class="cls-6"/><path d="m195.229 8.953.363-.492c-.13-.083-.213-.364-.319-.624l-.41.548a1.209 1.209 0 0 0 .366.568Z" class="cls-10"/><path d="M195.358 9.02a5.506 5.506 0 0 0 1.479.35l.072-.57a2.8 2.8 0 0 1-1.338-.355l-.363.492a.523.523 0 0 0 .15.083Z" class="cls-17"/><path d="m197.96 8.892.077-.731a2.564 2.564 0 0 0-.562.359l-.124.76a2.142 2.142 0 0 0 .609-.388Z" class="cls-11"/><path d="m197.372 9.272.128-.772a1.2 1.2 0 0 1-.611.3l-.072.568a1.421 1.421 0 0 0 .555-.096Z" class="cls-19"/><path d="M198.369 8.709c.031.008.08.022.115.034l.113-.565a.981.981 0 0 0-.3-.069.732.732 0 0 0-.279.06l-.078.741c.16-.133.291-.234.429-.201Z" style="fill:#eb962a"/><path d="m198.85 8.912.117-.56a2.657 2.657 0 0 0-.392-.182l-.112.566a1.8 1.8 0 0 1 .387.176Z" class="cls-21"/><path d="m199.186 9.158.213-.531a4.165 4.165 0 0 0-.454-.287l-.116.56a2.36 2.36 0 0 1 .357.258Z" class="cls-22"/><path d="m199.605 9.6.459-.345a3.228 3.228 0 0 0-.688-.643l-.212.528a3.425 3.425 0 0 1 .441.46Z" class="cls-23"/><path d="m199.7 9.76.481-.316a.673.673 0 0 0-.066-.116 1.436 1.436 0 0 0-.075-.1l-.459.347.063.08a.349.349 0 0 1 .056.105Z" style="fill:#eeaf67"/><path d="m199.736 10.612.576-.413a1.934 1.934 0 0 0-.148-.8l-.472.33a2.731 2.731 0 0 1 .044.883Z" class="cls-6"/><path d="m199.845 11.368.506-.387a5.761 5.761 0 0 1-.04-.8l-.575.414a1.736 1.736 0 0 0 .109.773Z" class="cls-9"/><path d="m199.965 11.531.49-.373a.266.266 0 0 1-.109-.2l-.511.387a.575.575 0 0 0 .13.186Z" class="cls-25"/><path d="m200.436 11.146-.493.364a.514.514 0 0 0 .181.125l.106.048.479-.359-.273-.178Z" class="cls-26"/><path d="m200.638 11.912.439-.323c-.12-.091-.265-.2-.39-.279l-.478.363a3.836 3.836 0 0 1 .429.239Z" class="cls-21"/><path d="m201.641 12.8.425-.306a6.518 6.518 0 0 0-1.01-.923l-.44.325a4.417 4.417 0 0 1 1.025.904Z" class="cls-15"/><path d="m201.781 13.008.431-.321a3.04 3.04 0 0 0-.161-.208l-.426.3a1.59 1.59 0 0 1 .156.229Z" class="cls-19"/><path d="m201.843 13.244.5-.349a1.81 1.81 0 0 0-.139-.225l-.432.314a.379.379 0 0 1 .071.26Z" class="cls-6"/><path d="M201.845 13.237c-.028.1-.093.275-.147.412l.723-.484a.76.76 0 0 0-.093-.291l-.481.348Z" class="cls-9"/><path d="m201.539 14.714.736-.7c-.132-.036.037-.366.137-.744a.359.359 0 0 0 .007-.136l-.708.476c-.211.535-.324.885-.194 1.078a.072.072 0 0 0 .022.026Z" style="fill:#994822"/><path d="m201.729 14.749.819-.751a2.46 2.46 0 0 0-.213.022.1.1 0 0 1-.081-.012l-.737.685c.03.04.102.057.212.056Z" class="cls-26"/><path d="M202.6 14.6a1.2 1.2 0 0 1 .4.018l.564-.523a3.072 3.072 0 0 0-1.051-.1l-.819.749a4.826 4.826 0 0 0 .906-.144Z" class="cls-15"/><path d="m205.192 16.053.555-.411a4.531 4.531 0 0 0-.664-.357l-.5.46c.187.091.423.207.609.308Z" class="cls-23"/><path d="m205.5 16.24.551-.341a1.69 1.69 0 0 0-.327-.275l-.554.414a3.078 3.078 0 0 1 .33.202Z" class="cls-12"/><path d="m205.672 16.442.534-.281a.854.854 0 0 0-.179-.284l-.555.346a.533.533 0 0 1 .193.2Z" class="cls-6"/><path d="m205.654 17.291.595-.368a1.993 1.993 0 0 0-.052-.786l-.532.281a1.641 1.641 0 0 1-.011.873Z" class="cls-7"/><path d="m205.433 18.319.03.013.606-.386.011-.036a6.644 6.644 0 0 0 .171-1.01l-.592.367a3.753 3.753 0 0 0-.226 1.052Z" class="cls-9"/><path d="m205.713 18.437.569-.405c-.139-.052-.214-.083-.2-.122l-.647.409c.001.008.133.059.278.118Z" class="cls-12"/><path d="m206.344 18.788.526-.351a1.082 1.082 0 0 0-.612-.414l-.569.4a2.377 2.377 0 0 1 .655.365Z" class="cls-15"/><path d="m208.1 20.109-.352.521a.63.63 0 0 1 .281.209l.369-.478a.955.955 0 0 0-.298-.252Z" class="cls-12"/><path d="M208.631 20.754a1.773 1.773 0 0 0-.247-.415l-.37.477a1.314 1.314 0 0 1 .219.388Z" class="cls-6"/><path d="M208.4 21.739c.015.053.087.1.2.145l.426-.479-.092-.063a1.8 1.8 0 0 1-.32-.61l-.4.45a5.64 5.64 0 0 1 .186.557Z" class="cls-28"/><path d="m209.011 21.389-.43.484c.153.067.353.121.383.193l.012.028.375-.471c-.089-.073-.22-.153-.34-.234Z" class="cls-12"/><path d="m209.328 21.6-.364.462c.015.036.041.1.054.138l.434-.473a.536.536 0 0 0-.124-.127Z" class="cls-29"/><path d="m209.068 23.138.529.168a2.121 2.121 0 0 0-.125-1.538.253.253 0 0 0-.038-.062l-.428.466c.171.447.194.792.062.966Z" class="cls-9"/><path d="M208.939 23.238c-.262.109-.7.275-1.072.466l.672.294.791-.368a.6.6 0 0 0 .277-.351l-.522-.164a.319.319 0 0 1-.146.123Z" class="cls-30"/><path d="m208.568 23.984-.673-.294a3.571 3.571 0 0 0-.377.22l.7.237Z" class="cls-31"/><path d="M207.54 23.9a1.18 1.18 0 0 0-.371.352l.729.072a.558.558 0 0 1 .138-.093c.035-.015.11-.048.206-.092Z" class="cls-32"/><path d="m207.922 24.3-.739-.074a.357.357 0 0 0-.042.346l.674-.088c-.015-.064.047-.137.107-.184Z" class="cls-31"/><path d="m207.812 24.458-.679.088a1.261 1.261 0 0 0 .135.278l.685-.277c-.114-.007-.143-.047-.141-.089Z" style="fill:#ba6019"/><path d="m207.488 25.034.713-.471a5.027 5.027 0 0 1-.282-.02l-.664.261a.664.664 0 0 0 .233.23Z" class="cls-9"/><path d="m207.836 25.13.135.015.753-.539c-.2-.022-.4-.036-.547-.044l-.7.464a.86.86 0 0 0 .359.104Z" class="cls-28"/><path d="m208.873 25.238.679-.472a4.962 4.962 0 0 0-.851-.163l-.754.539c.292.03.63.05.926.096Z" class="cls-29"/><path d="M209.585 25.434a.936.936 0 0 1 .2.134l.5-.354a1.411 1.411 0 0 0-.532-.38q-.114-.042-.231-.075l-.683.475a2.715 2.715 0 0 1 .746.2Z" class="cls-22"/><path d="m210.047 25.854.484-.319a2.3 2.3 0 0 0-.265-.348l-.5.357a1.492 1.492 0 0 1 .281.31Z" style="fill:#d89050"/><path d="M210.373 26.891a.442.442 0 0 1-.1.19l.54.315a.855.855 0 0 0 .124-.377 2.632 2.632 0 0 0-.426-1.511l-.485.321a1.57 1.57 0 0 1 .347 1.062Z" class="cls-13"/><path d="m210.831 27.37-.536-.313c-.244.323-.961.4-1.609.405l.2.61c.768-.031 1.64-.172 1.945-.702Z" class="cls-7"/><path d="M207.844 27.445a.841.841 0 0 0-.261.037l.17.59h.025c.086-.014.568.027 1.134 0l-.2-.61c-.358.004-.685-.013-.868-.017Z" class="cls-32"/><path d="m207.073 27.935.262.732c.207-.166.226-.569.443-.6l-.171-.593a.9.9 0 0 0-.534.461Z" class="cls-7"/><path d="m207.361 28.644-.272-.736a1.161 1.161 0 0 0-.11.256l.21.577a.469.469 0 0 0 .123-.055.4.4 0 0 0 .049-.042Z" class="cls-35"/><path d="M205.378 28.27c-1.661-.034-2.089-.655-2.089-.655h-.02l-.191.7a.382.382 0 0 1 .136.063 4.4 4.4 0 0 0 2.151.514 7.892 7.892 0 0 0 1.848-.164l-.223-.605a13.9 13.9 0 0 1-1.612.147Z" class="cls-32"/><path d="m202.432 28.046-.213.936a2.881 2.881 0 0 0 .631-.507c.143-.131.187-.17.254-.15l.185-.71a1.08 1.08 0 0 0-.857.431Z" class="cls-30"/><path d="m201.727 28.512-.141.646a1.265 1.265 0 0 0 .659-.191l.213-.946a1.615 1.615 0 0 1-.731.491Z" class="cls-35"/><path d="M200.854 27.814h-.025l-.318.622h.028a1.322 1.322 0 0 0 1.074.718l.142-.654c-.396.128-.901-.686-.901-.686Z" class="cls-32"/><path d="m197.44 27.558-.36.518a4.934 4.934 0 0 0 2 .366l.264-.6a5.066 5.066 0 0 1-1.904-.284Z" class="cls-35"/><path d="M195.671 25.545c-.125 0-.278-.007-.409 0l.11.6c.077-.013.132.031.2.083.375.288 1.267 1.731 1.536 1.867l.357-.516c-.465-.328-1.44-2.024-1.794-2.034Z" class="cls-32"/><path d="M195.287 25.543a.892.892 0 0 0-.446.1l.307.57a.448.448 0 0 1 .25-.071Z" class="cls-35"/><path d="m194.536 25.968.49.546a.388.388 0 0 1 .145-.319l-.309-.565a.743.743 0 0 0-.326.338Z" class="cls-32"/><path d="m199.319 27.84-.265.6c.579.02 1.152 0 1.485 0l.315-.627a13.813 13.813 0 0 1-1.535.027Z" class="cls-30"/><path d="m194.394 26.787.663.437a3.553 3.553 0 0 1-.026-.749l-.48-.535a1.612 1.612 0 0 0-.157.847Z" class="cls-36"/><path d="m194.813 29.883.566-.185c-.042-.2-.248-1.707-.325-2.5l-.661-.437a28.407 28.407 0 0 0 .42 3.122Z" class="cls-9"/><path d="m195.376 29.684-.572.173a1.075 1.075 0 0 0 .228.384l.522-.329a.433.433 0 0 1-.178-.228Z" class="cls-37"/><path d="m195.525 29.888-.518.324a2.48 2.48 0 0 0 .735.554l.39-.5a3.3 3.3 0 0 1-.607-.378Z" class="cls-12"/><path d="m196.655 31.176.315-.53a13.297 13.297 0 0 1-.871-.4l-.389.5a8.887 8.887 0 0 0 .945.43Z" style="fill:#ffc278"/><path d="m197.417 31.476.3-.519c-.175-.074-.477-.2-.777-.323l-.315.53c.275.108.564.217.792.312Z" style="fill:#ea913e"/><path d="m197.755 31.633.374-.436a1.351 1.351 0 0 0-.438-.251l-.3.519c.124.052.266.117.364.168Z" style="fill:#c57231"/><path d="m197.808 32.038.563.526c.115-.084.015-.673-.105-1.048a.837.837 0 0 0-.159-.343l-.38.446Z" class="cls-36"/><path d="m196.973 31.9.535.591c.236.031.485.071.677.1.133.019.177-.006.207-.051L197.8 32a24.02 24.02 0 0 0-.827-.1ZM195.757 33.315l.476.605c.132-.067.112-.483.1-.769l-.569-.184Z" class="cls-35"/><path d="M196.088 32.41a8.184 8.184 0 0 1 1.45.086l-.538-.591c-.868-.087-1.968-.148-2.015.116l1.063.454c-.024-.057.015-.064.04-.065Z" style="fill:#642813"/><path d="M196.044 32.43 195 32c-.02.043-.006.1.049.162.162.192.5.524.747.847l.54.175a1.6 1.6 0 0 0-.056-.32c-.069-.2-.262-.377-.236-.434Z" class="cls-30"/><path d="m195.522 33.17.029.659c.409.153.624.15.707.072l-.5-.631Z" class="cls-32"/><path d="m192.45 32.348-.131.62a8.737 8.737 0 0 1 2.971.756c.106.046.2.084.289.115l-.03-.657a9.975 9.975 0 0 0-3.099-.834Z" class="cls-35"/><path d="m188.476 33.164-.289.762a8.105 8.105 0 0 1 4.159-.956l.13-.62a7.561 7.561 0 0 0-4 .814Z" class="cls-32"/><path d="m188.234 33.279-.417.7c.073.049.214.018.411-.073l.29-.765Z" class="cls-42"/><path d="M187.769 33.918a.122.122 0 0 0 .081.078l.418-.733-.032-.387-.576-.014a2.444 2.444 0 0 0 .109 1.056Z" class="cls-32"/><path d="M188.056 32.368c.158.045-.361.295-.406.528l.588.014c.346-.321.558-.535.783-.767.041-.042.076-.1.052-.144Z" class="cls-36"/><path d="m188.456 31.838-.658.512c.226.006.274.012.286.036l1-.355c-.005-.108-.222-.169-.628-.193Z" class="cls-42"/><path d="m186.736 31.869-.582.414c.11.218.981.038 1.676.068l.656-.511a16.457 16.457 0 0 0-1.75.029Z" class="cls-32"/><path d="m186.888 31.447-.325-.435a2.167 2.167 0 0 0-.421 1.194.119.119 0 0 0 .031.1l.608-.444Z" class="cls-36"/><path d="m187.978 31.2-.444-.487c-.3.094-.721.2-.893.255a.276.276 0 0 0-.1.068l.339.454c.32-.098.776-.198 1.098-.29Z" class="cls-13"/><path d="m188.64 30.954-.48-.476a5.478 5.478 0 0 1-.659.242l.443.487a4.474 4.474 0 0 0 .696-.253Z" class="cls-43"/><path d="m189.191 30.543-.47-.463a1.467 1.467 0 0 1-.585.409l.479.476a1.579 1.579 0 0 0 .576-.422Z" class="cls-37"/><path d="M189.385 30.123c.153-.812.363-3.108.357-3.238l-.635.177c-.066.806-.175 2.308-.306 2.852a.487.487 0 0 1-.1.189l.469.462a.936.936 0 0 0 .215-.442Z" style="fill:#76310a"/><path d="m189.386 25.763-.469.354a1.462 1.462 0 0 1 .188.97l.637-.177a1.924 1.924 0 0 0-.356-1.147Z" class="cls-30"/><path d="M188.383 25.261a3.732 3.732 0 0 0-1.371.762l.641.434c-.073-.283.75-.619.9-.615a.566.566 0 0 1 .376.3l.471-.356a1.038 1.038 0 0 0-1.017-.525Z" class="cls-32"/><path d="M187.02 26.01c-.122.2-.012.462.058.779l.681.516a4.331 4.331 0 0 0-.11-.874l-.624-.431Z" class="cls-30"/><path d="M187.133 27.337a.166.166 0 0 1-.041.1l.4.447a.76.76 0 0 0 .267-.6l-.688-.522a2.017 2.017 0 0 1 .062.575Z" class="cls-35"/><path d="m186.671 27.6.249.516a1.053 1.053 0 0 0 .589-.253l-.4-.448a.657.657 0 0 1-.438.185Z" class="cls-36"/><path d="m184.7 27.609.131.582c.456-.016 1.571.007 2.118-.076l-.249-.515a10.8 10.8 0 0 1-2 .009Z" class="cls-32"/><path d="m183.714 28.135.183.642a3.15 3.15 0 0 1 .788-.577c.036 0 .093-.008.166-.01l-.134-.58a1.845 1.845 0 0 0-1.003.525Z" style="fill:#994b17"/><path d="M183.74 28.113c-.358.28-.618.542-.749.551l.161.577a2 2 0 0 0 .771-.486Z" class="cls-35"/><path d="M181.963 28.722c-.256.008-.558-.476-.976-.585l-.033.593a.337.337 0 0 1 .169.1 1.193 1.193 0 0 0 .773.469 9.548 9.548 0 0 0 1.283-.064l-.164-.577a8.678 8.678 0 0 1-1.052.064Z" class="cls-32"/><path d="M180.845 28.113c-.193-.012-.451.257-.65.422l.117.641a3.248 3.248 0 0 0 .484-.4.183.183 0 0 1 .183-.037l.034-.592a.7.7 0 0 0-.168-.034Z" style="fill:#a35622"/><path d="M180.217 28.516a.493.493 0 0 1-.268.152h-.018l.04.6a.689.689 0 0 0 .364-.107Z" class="cls-35"/><path d="M178.177 28.138c-.011-.005-.026-.015-.038-.052l-.5.324a.99.99 0 0 0 .349.3 6.353 6.353 0 0 0 2.008.563l-.048-.6a5.221 5.221 0 0 1-1.771-.535Z" class="cls-32"/><path d="m178.236 27.273-.661.513-.033.293a.492.492 0 0 0 .117.356l.491-.323a1.963 1.963 0 0 1 .086-.839Z" style="fill:#af6638"/><path d="m178.3 26.88-.025-.011-.756.622h.033c.048 0 .043.087.017.322l.658-.51a1.83 1.83 0 0 0 .073-.423Z" class="cls-35"/><path d="m177.311 26.892.054.724.116-.088a.175.175 0 0 1 .074-.039l.748-.609a2.291 2.291 0 0 0-.992.012Z" class="cls-32"/><path d="M177.167 26.949c-.116.076-.4.316-.581.454l.27.581a5.011 5.011 0 0 0 .536-.388l-.053-.711a.592.592 0 0 0-.172.064Z" class="cls-48"/><path d="M176.429 27.5a4.632 4.632 0 0 1-2.473.068l-.531.3.014.029c.241.312 1.312.51 3.085.206a1.024 1.024 0 0 0 .359-.13l-.272-.584a.71.71 0 0 1-.182.111Z" class="cls-32"/><path d="m174.137 26.285-.537-.223a4.93 4.93 0 0 0-.161 1.831l.546-.315a6.493 6.493 0 0 1 .152-1.293Z" class="cls-48"/><path d="m174.219 26.09.22-.217-.534-.355a1.518 1.518 0 0 0-.186.233 1.35 1.35 0 0 0-.126.339l.537.223a.575.575 0 0 1 .089-.223Z" class="cls-49"/><path d="m175.449 24.613-.851.1.023.03c.07.12-.431.468-.74.8l.533.354c.444-.431 1.104-1.041 1.035-1.284Z" style="fill:#d27c3c"/><path d="M175.441 24.591a4.712 4.712 0 0 0-.479-.457l-.73.053a6.519 6.519 0 0 0 .385.548l.837-.1a.127.127 0 0 0-.013-.044Z" class="cls-51"/><path d="m174.647 23.65-.64-.02a1.312 1.312 0 0 0 .239.58l.739-.054c-.178-.167-.36-.364-.338-.506Z" class="cls-8"/><path d="m174.788 23.407-.607-.178a3.683 3.683 0 0 0-.151.276.278.278 0 0 0-.021.148l.636.021c0-.051.014-.074.143-.267Z" class="cls-6"/><path d="M175.026 23.074a.249.249 0 0 1 .114-.08l-.223-.562a2.179 2.179 0 0 0-.756.831l.607.174a7.22 7.22 0 0 1 .258-.363Z" class="cls-25"/><path d="m175.54 23.015-.09-.659a.867.867 0 0 0-.557.089l.221.559a.693.693 0 0 1 .426.011Z" class="cls-9"/><path d="m175.423 22.356.092.654a1.042 1.042 0 0 0 .387.038l-.118-.707a1.8 1.8 0 0 1-.361.015Z" class="cls-6"/><path d="M175.843 22.308a.145.145 0 0 1-.085.038l.12.706a.294.294 0 0 0 .134-.049Z" class="cls-25"/><path d="m176.315 22.651-.2-.691c-.13.148-.241.336-.294.366l.169.691a1.029 1.029 0 0 0 .325-.366Z" class="cls-49"/><path d="m176.1 21.982.2.7a3.112 3.112 0 0 1 .175-.269l-.175-.613a.852.852 0 0 0-.2.182Z" class="cls-6"/><path d="M176.523 22.369a.776.776 0 0 1 .079-.019l-.074-.627a1.147 1.147 0 0 0-.145.033.462.462 0 0 0-.106.054l.176.625a.18.18 0 0 1 .07-.066Z" class="cls-25"/><path d="m177.187 22.313.04-.61a3.641 3.641 0 0 0-.723.024l.074.628a3.117 3.117 0 0 1 .609-.042Z" class="cls-9"/><path d="m177.2 21.7-.041.611c.054 0 .131 0 .181.005l.151-.605Z" class="cls-25"/><path d="M177.5 21.714h-.03l-.152.6h.023a.134.134 0 0 1 .076.041l.273-.6a.511.511 0 0 0-.19-.041Z" class="cls-19"/><path d="m177.611 22.631.292-.691a.486.486 0 0 0-.237-.2l-.269.6a1.007 1.007 0 0 1 .214.291Z" class="cls-49"/><path d="m177.813 22.968.283-.726c-.07-.1-.148-.247-.216-.334l-.291.686c.07.117.154.275.224.374Z" class="cls-25"/><path d="M177.916 23.057h.129l.2-.641a1.256 1.256 0 0 1-.17-.211l-.283.726c.046.075.089.126.124.126Z" class="cls-49"/><path d="m178.627 22.98-.272-.566-.023.013c-.057.034-.066.016-.112-.032l-.2.664a1.273 1.273 0 0 0 .607-.079Z" class="cls-48"/><path d="M178.726 22.879c.021-.039.049-.1.069-.148l-.4-.469a.309.309 0 0 1-.061.162h-.006l.272.566a.28.28 0 0 0 .126-.111Z" class="cls-49"/><path d="m178.9 22.428-.471-.394a1.778 1.778 0 0 1-.032.253l.392.465a2.731 2.731 0 0 0 .111-.324Z" class="cls-6"/><path d="M179.023 21.632a.252.252 0 0 0-.015-.077l-.617.183a.7.7 0 0 1 .033.319l.467.391a3.276 3.276 0 0 0 .132-.816Z" class="cls-52"/><path d="m178.624 21.179-.655.251c.206.133.411.261.433.33l.613-.182a.83.83 0 0 0-.391-.399Z" class="cls-51"/><path d="m178.158 20.911-.607.221a4.6 4.6 0 0 0 .446.316l.655-.251c-.147-.097-.346-.203-.494-.286Z" style="fill:#9a4921"/><path d="m177.8 20.6-.542.14a.844.844 0 0 0 .318.415l.613-.224c-.276-.161-.402-.238-.389-.331Z" class="cls-9"/><path d="M177.28 20.482a5.32 5.32 0 0 0-.027.136.311.311 0 0 0 .01.142l.536-.14a.914.914 0 0 1 .027-.2Z" style="fill:#96441e"/><path d="m177.858 20.289-.53-.02-.054.238.547-.059c.008-.041.022-.101.037-.159Z" class="cls-9"/><path d="m178.261 19.224-.478-.275a6.272 6.272 0 0 0-.461 1.344l.53.02a4.746 4.746 0 0 1 .409-1.089Z" class="cls-49"/><path d="m177.77 18.972.477.275a.515.515 0 0 1 .115-.145l-.5-.289a1.852 1.852 0 0 0-.092.159Z" class="cls-43"/><path d="m178.522 19.04-.532-.363a.6.6 0 0 0-.139.159l.489.285a.15.15 0 0 1 .049-.034Z" class="cls-6"/><path d="m179.026 18.806-.545-.355c-.129.063-.273.118-.447.2a.281.281 0 0 0-.068.046l.523.355a3.111 3.111 0 0 0 .537-.246Z" style="fill:#a04e14"/><path d="M178.644 18.3a.079.079 0 0 1 0 .036.431.431 0 0 1-.182.128l.547.356c.14-.083.26-.184.244-.284Z" class="cls-43"/><path d="M179.249 18.54c-.035-.213-.1-.519-.157-.8l-.56-.141a5.889 5.889 0 0 1 .111.729l.606.237a.133.133 0 0 0 0-.025Z" class="cls-49"/><path d="m178.949 16.821-.509-.145a5.644 5.644 0 0 0 .1.941l.561.141a7.422 7.422 0 0 1-.152-.937Z" class="cls-6"/><path d="M178.994 16.546c.037-.034.1-.088.143-.123l-.5-.361a.78.78 0 0 0-.195.639l.51.144c-.011-.152-.001-.261.042-.299Z" style="fill:#aa5a28"/><path d="m179.905 15.873-.191-.63a13.013 13.013 0 0 0-1.1.841l.5.361a9.58 9.58 0 0 1 .791-.572Z" class="cls-57"/><path d="M180.037 15.785a.32.32 0 0 1 .192-.051l-.028-.662a.562.562 0 0 0-.337.073c-.05.031-.11.071-.175.115l.191.629Z" class="cls-48"/><path d="M180.624 15.844v-.678a1.513 1.513 0 0 0-.447-.1l.029.663a.99.99 0 0 1 .418.115Z" class="cls-58"/><path d="M180.6 15.158v.675a1.246 1.246 0 0 0 1.07.161l-.223-.572c-.103.078-.477-.14-.847-.264Z" class="cls-12"/><path d="m181.96 15.75-.48-.417c0 .058-.014.08-.041.1l.207.576a.587.587 0 0 0 .314-.259Z" class="cls-52"/><path d="M181.522 14.67c-.016.189-.03.431-.043.686l.472.41a2.1 2.1 0 0 0 .1-.608Z" class="cls-57"/><path d="m182.068 14.887-.516-.5c-.011.087-.023.2-.032.308l.526.489.022-.297Z" class="cls-9"/><path d="m182.148 14.278-.42-.446a1.2 1.2 0 0 0-.178.574l.516.5a3.918 3.918 0 0 1 .082-.628Z" class="cls-6"/><path d="M182.211 14.158c.045-.031.12-.078.17-.109l-.393-.428a7.019 7.019 0 0 0-.193.144.411.411 0 0 0-.081.085l.427.454a.258.258 0 0 1 .07-.146Z" style="fill:#aa5e33"/><path d="m182.9 13.754-.169-.6a6.66 6.66 0 0 0-.768.482l.391.426c.178-.105.4-.228.546-.308Z" class="cls-57"/><path d="M183.035 13.68a.231.231 0 0 1 .149-.01l-.184-.621a1.517 1.517 0 0 0-.287.12l.169.6Z" class="cls-9"/><path d="m183.317 13.7-.178-.661a.3.3 0 0 0-.166.016l.184.61a1.032 1.032 0 0 1 .16.035Z" class="cls-58"/><path d="m183.714 13.837-.179-.677a2.622 2.622 0 0 0-.419-.124l.178.658c.124.035.29.099.42.143Z" class="cls-12"/><path d="m184.037 13.864.018-.021-.225-.6h-.03a2.219 2.219 0 0 1-.292-.1l.179.677c.164.064.302.099.35.044Z" style="fill:#e5872b"/><path d="m184.231 13.633-.295-.512c-.052.077-.1.128-.132.127l.233.616.194-.231Z" class="cls-9"/><path d="m184.608 13-.571-.117v.022a.6.6 0 0 1-.116.237l.294.51a1.761 1.761 0 0 0 .393-.652Z" class="cls-57"/><path d="M184.607 12.853a7.497 7.497 0 0 0-.051-.187l-.6-.122c.045.183.085.34.085.362l.566.117a.34.34 0 0 0 0-.17Z" style="fill:#b96534"/><path d="m184.375 12-.578-.123c.048.233.113.5.161.69l.6.122c-.047-.189-.123-.452-.183-.689Z" class="cls-9"/><path d="m184.287 11.223-.538-.137a1.186 1.186 0 0 0-.031.153 2.705 2.705 0 0 0 .083.664l.58.122c-.114-.468-.153-.706-.094-.802Z" class="cls-62"/><path d="m184.649 10.485-.346-.479a4.237 4.237 0 0 0-.56 1.1l.533.136c.129-.253.224-.512.373-.757Z" class="cls-6"/><path d="M184.779 10.294a.372.372 0 0 1 .13-.1l-.265-.557a.781.781 0 0 0-.21.188c-.043.056-.1.132-.155.219l.356.467a2.169 2.169 0 0 1 .144-.217Z" class="cls-13"/><path d="m185.271 10.088-.258-.594a1.131 1.131 0 0 0-.393.155l.264.556a1.068 1.068 0 0 1 .387-.117Z" class="cls-57"/><path d="m184.989 9.5.258.593c.359-.058.838-.06 1.058-.274l-.236-.689c-.175.315-.664.27-1.08.37Z" class="cls-63"/><path d="m186.626 9.365-.258-.711a1.154 1.154 0 0 0-.274.423.42.42 0 0 1-.04.076l.233.681a1.227 1.227 0 0 0 .339-.469Z" class="cls-9"/><path d="m187.208 8.93-.125-.583a1.209 1.209 0 0 0-.738.33l.263.726c.113-.241.152-.43.6-.473Z" class="cls-6"/><path d="m187.948 8.719-.135-.564a2.508 2.508 0 0 1-.683.185l-.071.01.124.582a2.8 2.8 0 0 0 .765-.213Z" class="cls-19"/><path d="m188.73 8.315-.156-.571a4.6 4.6 0 0 1-.784.42l.135.565a6.321 6.321 0 0 0 .805-.414Z" class="cls-13"/><path d="m189.41 7.9-.124-.6a1.036 1.036 0 0 0-.253.128c-.133.1-.3.219-.482.339l.155.569c.294-.181.555-.36.704-.436Z" class="cls-25"/><path d="M189.452 7.876A2.42 2.42 0 0 1 190.5 7.8l-.035-.544a2.754 2.754 0 0 0-1.2.046l.126.607c.02-.009.042-.025.061-.033Z" class="cls-19"/><path d="m191.418 7.925-.033-.514c-.264-.046-.615-.116-.948-.158l.035.545c.328.026.685.08.946.127Z" class="cls-21"/><path d="M191.875 8.015h.022l-.012-.564a1.568 1.568 0 0 1-.523-.042l.032.514c.284.048.481.092.481.092Z" class="cls-19"/><path d="m192.262 7.861-.049-.6a1.847 1.847 0 0 1-.35.2l.012.56a1.038 1.038 0 0 0 .387-.16Z" class="cls-16"/><g><path d="M190.914 19.457c-.077.172-.262.858-.565 1.064-.4.27-1.14-.044-1.337.077a.349.349 0 0 0 .048.577 24 24 0 0 1 2.5 1.34c.076.049.2-.035.239-.187s.45-2.672.408-2.77c-.141-.338-1.225-.252-1.293-.101Z" style="fill:url(#Ny_övertoningsruta_3-2)"/><path d="M193.824 19.942c-.02.064-.376 2.766-.315 2.8a28.952 28.952 0 0 1 2.4-1.9c.081-.054.042-.222.04-.239a3.313 3.313 0 0 0-.672-.85c-.157.002-1.445.163-1.453.189Z" style="fill:url(#Ny_övertoningsruta_3-3)"/><path d="M194.429 24.133c-.018.15.959.336 1.812.051.207-.069.507-.895.9-1.024s1.341.266 1.642 0c.24-.21.19-.854-.159-.873a6.551 6.551 0 0 1-1.754-.315c-.093-.02-2.329 1.245-2.441 2.161Z" style="fill:url(#Ny_övertoningsruta_3-4)"/><path d="M187.73 22.384c-.076.045-.292.6-.513.756a.6.6 0 0 1-.393.086 1.736 1.736 0 0 1-.722-.163 1.076 1.076 0 0 0-.429-.142c-.252 0-.51.291-.615.584-.23.691 1.1 1.009 1.284 1.071a2.412 2.412 0 0 0 1.318-.42 2.169 2.169 0 0 1 .971-.292c.277 0 .636.177 1.112.223a.317.317 0 0 0 .209-.147.475.475 0 0 0 .016-.4 10.322 10.322 0 0 0-1.64-1.028c-.151-.077-.501-.187-.598-.128Z" style="fill:url(#Ny_övertoningsruta_3-5)"/><g><path d="M204.318 23.894a1.119 1.119 0 0 0 .1.483c.043.06.521.047.542-.046.041-.181-.033-.4-.359-.661-.065-.05-.295.123-.283.224Z" style="fill:url(#Ny_övertoningsruta_3-6)"/><path d="M176.329 25.114a1.061 1.061 0 0 0 .022.694c.2.173.833-.291.942-.435a.405.405 0 0 0 .113-.309c-.033-.216-.114-.253-.193-.253a3.814 3.814 0 0 0-.884.303Z" style="fill:url(#Ny_övertoningsruta_3-7)"/><path d="M205.613 21.977a.331.331 0 0 0-.326.376c0 .226.152.4.65.373.606-.036.6.294.864.3.562 0 .447-.546.454-.791.008-.28-.985-.287-1.642-.258Z" style="fill:url(#Ny_övertoningsruta_3-8)"/><path d="M202.207 16.434a.359.359 0 0 0-.278.454c.072.092.373-.028.762.226a4.489 4.489 0 0 1 .663.963.759.759 0 0 0 .711.255c.175-.1-.17-1.151-.279-1.2-.4-.19-.693-.491-.916-.6a1.859 1.859 0 0 0-.663-.098Z" style="fill:url(#Ny_övertoningsruta_3-9)"/><path d="M204.167 20.4a.434.434 0 0 0-.171.5 1.2 1.2 0 0 0 .867.211.288.288 0 0 0 .139-.353c-.039-.116-.267-.765-.467-.765-.135-.007-.206.28-.368.407Z" style="fill:url(#Ny_övertoningsruta_3-10)"/><path d="M181.551 20.661a2.429 2.429 0 0 0-.695.87c-.079.132-.166.4-.094.4a.388.388 0 0 0 .385-.172c.273-.428.63-.231.782-.376.4-.378.4-.787.348-.845a.822.822 0 0 0-.726.123Z" style="fill:url(#Ny_övertoningsruta_3-11)"/><path d="M199.9 14.172a1.247 1.247 0 0 0 .025 1.2c.084.077.384-.005.451-.082a.984.984 0 0 0-.22-1.007c-.085-.083-.188-.148-.256-.111Z" style="fill:url(#Ny_övertoningsruta_3-12)"/><path d="M201.1 18.759c-.179.06-.56.408-.478.552s.206.145.645.085c.183-.024.389.321.5.375a2.481 2.481 0 0 0 .639.177.432.432 0 0 0 .278-.358c-.012-.059-.369-.3-.463-.415-.234-.283-.067-.459-.147-.561s-.816.092-.974.145Z" style="fill:url(#Ny_övertoningsruta_3-13)"/><path d="M195.927 16.7c-.01.089.267.273.362.255a3.293 3.293 0 0 1 .436-.142c.382-.04 1.042.451 1.263.384a.462.462 0 0 0 .164-.466 1.266 1.266 0 0 0-.8-.364c-.352.039-.613-.223-.745-.16-.532.251-.65.211-.68.493Z" style="fill:url(#Ny_övertoningsruta_3-14)"/><path d="M197.019 13.7c.027.093.136.236.514.556.158.134.188.437.384.672.029.035.353.132.366.061.052-.292-.184-.4-.165-.709.03-.488.026-.622-.058-.731a1.363 1.363 0 0 0-.686-.182c-.16.002-.395.195-.355.333Z" style="fill:url(#Ny_övertoningsruta_3-15)"/><path d="M192.469 11.482c-.044.214.311.562.439.562.152 0 .5-.306.827-.291a.453.453 0 0 0 .484-.527.464.464 0 0 0-.37-.172.579.579 0 0 1-.652-.013c-.212-.121-.617-.11-.728.441Z" style="fill:url(#Ny_övertoningsruta_3-16)"/><path d="M197.182 11.428c.061.2.16.169.242.1a.655.655 0 0 1 .484-.184c.325.041.7 1.007.82.973.084-.022.129-.43.1-.62a1.868 1.868 0 0 0-.385-.732 1.516 1.516 0 0 0-.794-.426c-.273.001-.529.691-.467.889Z" style="fill:url(#Ny_övertoningsruta_3-17)"/><path d="M193.87 13.256c-.258.366-.511.394-.784.643-.194.176-.211.669.041.669s.265-.286.954-.562a1.68 1.68 0 0 1 1.241-.145.293.293 0 0 0 .315-.307 2.714 2.714 0 0 0-.885-.419 1.344 1.344 0 0 0-.882.121Z" style="fill:url(#Ny_övertoningsruta_3-18)"/><path d="M193.1 9.105a.576.576 0 0 0 .571.735.437.437 0 0 0 .443-.624c-.083-.246-.877-.369-1.014-.111Z" style="fill:url(#Ny_övertoningsruta_3-19)"/><path d="M189.87 9.439c-.046.141-.034.427.119.5.133.06.271-.215.585-.177.451.054.493.384.6.384.208 0 .435-.291.294-.739-.013-.041-.075 0-.221-.115-.08-.064-.172-.245-.244-.245-.378-.003-1.013.02-1.133.392Z" style="fill:url(#Ny_övertoningsruta_3-20)"/><path d="M188.815 15.82c-.255.161-.651.464-.557.82.033.125.488.045.738-.014a.8.8 0 0 0 .6-.871c-.122-.197-.357-.202-.781.065Z" style="fill:url(#Ny_övertoningsruta_3-21)"/><path d="M198.917 18.1c-.2.546-.205.751-.028.8.261.073.3-.046.868-.729.087-.105.41-.155.434-.164a.518.518 0 0 0 .227-.364c-.011-.107-.588-.372-.721-.356-.19.02-.748.723-.78.813Z" style="fill:url(#Ny_övertoningsruta_3-22)"/><path d="M190.7 13.233c-.422.574-.385 1.286-.117 1.306.111.008.212-.209.232-.3a.854.854 0 0 1 .1-.44.337.337 0 0 1 .3-.141c.043 0 .152-.5-.043-.608s-.318-.027-.472.183Z" style="fill:url(#Ny_övertoningsruta_3-23)"/><path d="M182.844 17.922a.957.957 0 0 0-.292.531c-.015.188.175.4.543.3.26-.072.438-.3.912-.538.236-.117.249-.4.135-.424-.158-.038-.365-.1-.573-.13a1.225 1.225 0 0 0-.725.261Z" style="fill:url(#Ny_övertoningsruta_3-24)"/><path d="M187.022 11.086a2.8 2.8 0 0 1-.634.128.829.829 0 0 0-.569.649 4.536 4.536 0 0 0 .366 1.492.368.368 0 0 0 .337.016c.116-.083-.144-1.191.078-1.453.188-.224 1.331-.493 1.437-.673.071-.121-.028-.7-.117-.71-.171-.02-.68.43-.898.551Z" style="fill:url(#Ny_övertoningsruta_3-25)"/><path d="M180.7 16.956a2.044 2.044 0 0 0-.475.334.507.507 0 0 0-.126.5c.045.136.144.174.307.052a.867.867 0 0 1 .585-.282c.107-.021.137-.347.047-.488a.33.33 0 0 0-.338-.116Z" style="fill:url(#Ny_övertoningsruta_3-26)"/><path d="M185.18 20.715c.05.018.471.4.3.593-.081.064-.167.019-.5.1a1.351 1.351 0 0 0-.645.41 1.846 1.846 0 0 1-.749.446.271.271 0 0 1-.2-.081.547.547 0 0 1-.081-.424c.018-.089.121-.367.254-.388a1.7 1.7 0 0 0 .767-.238c.325-.182.333-.476.854-.418Z" style="fill:url(#Ny_övertoningsruta_3-27)"/><path d="M183.315 15.717a.567.567 0 0 0-.2.383c0 .179.276.477.488.278.331-.308.528-.842.362-.929s-.515.123-.65.268Z" style="fill:url(#Ny_övertoningsruta_3-28)"/><path d="M186.272 15a1.527 1.527 0 0 0-1.149.881.3.3 0 0 0 .22.349c.19 0 .564-.58.8-.647a1.527 1.527 0 0 1 .729.129c.335.106.435.184.5.015s-.031-.605-.2-.657a2 2 0 0 0-.9-.07Z" style="fill:url(#Ny_övertoningsruta_3-29)"/><path d="M179.447 26.689c-.031.267.113.434.654.465.581.033.544-.32.484-.348a2.058 2.058 0 0 1-.76-.485c-.033-.032-.341.046-.378.368Z" style="fill:url(#Ny_övertoningsruta_3-30)"/><path d="M179.07 23.91a.639.639 0 0 0 .058.369.522.522 0 0 0 .2.134c.106.032.21 0 .515-.242.124-.1.253-.095.347-.193a.243.243 0 0 0 .031-.22.741.741 0 0 0-.445-.34 1.336 1.336 0 0 0-.706.492Z" style="fill:url(#Ny_övertoningsruta_3-31)"/><path d="M180.607 19.072a1.264 1.264 0 0 0-.658.166.664.664 0 0 0-.359.635.355.355 0 0 0 .257.315.377.377 0 0 0 .393-.2.511.511 0 0 1 .5-.393c.21-.024.362 0 .44-.125s.049-.342 0-.355a1.983 1.983 0 0 0-.573-.043Z" style="fill:url(#Ny_övertoningsruta_3-32)"/><path d="M182.947 26.305c-.01.235.128.4.263.4s.372-.111.516-.123c.239-.019.339.068.365.013a.437.437 0 0 0-.062-.4c-.079-.172-.3-.083-.4-.081-.2 0-.375-.17-.454-.17-.151-.008-.224.271-.228.361Z" style="fill:url(#Ny_övertoningsruta_3-33)"/><path d="M197.738 25.826a.992.992 0 0 0 .978.242c.122-.03.231-.346.089-.431a1.169 1.169 0 0 0-.947-.142.226.226 0 0 0-.12.331Z" style="fill:url(#Ny_övertoningsruta_3-34)"/><path d="M181.251 24.866c-.3.093-.441.179-.479.419-.028.172.136.221.422.229.458.014.678-.23.678-.436 0-.364-.354-.294-.621-.212Z" style="fill:url(#Ny_övertoningsruta_3-35)"/><path d="M200.358 26.3c.147.259.545.019 1.017.18.144.049.342.42.577.359.12-.031.25-.489.257-.785 0-.218-.419-.33-.6-.267a4.772 4.772 0 0 1-1.074.272.27.27 0 0 0-.177.241Z" style="fill:url(#Ny_övertoningsruta_3-36)"/><path d="M200.886 23.712c.033.115.747.035 1 .215.361.255.687.288.729.207a.568.568 0 0 0-.2-.691 1.5 1.5 0 0 0-.726-.249c-.749.057-.835.406-.803.518Z" style="fill:url(#Ny_övertoningsruta_3-37)"/><path d="M205.563 25.778c-.154 0-.359.392-.682.376-.185-.008-.48-.169-.615-.163-.229.01-.484.441-.421.554a1.535 1.535 0 0 0 1.123.354.481.481 0 0 0 .467-.237c.153-.228.428-.268.492-.33a.61.61 0 0 0 .01-.335.5.5 0 0 0-.374-.219Z" style="fill:url(#Ny_övertoningsruta_3-38)"/><path d="M207.824 26.156a.357.357 0 0 0 .214.552c.109.018.665-.095.706-.2.05-.131-.109-.476-.274-.5s-.539-.008-.646.148Z" style="fill:url(#Ny_övertoningsruta_3-39)"/></g></g><g><path d="m194.988 23.3-.127-.11a1.78 1.78 0 0 0-.568.856l.168.021a1.578 1.578 0 0 1 .527-.767Z" class="cls-8"/><path d="M194.294 24.043a.432.432 0 0 0 0 .138c.012.089.108.157.252.2l.071-.155a.319.319 0 0 1-.156-.077.284.284 0 0 1 0-.084Z" class="cls-62"/><path d="M195.267 24.3a2.352 2.352 0 0 1-.654-.074l-.077.153a2.47 2.47 0 0 0 .731.09 2.53 2.53 0 0 0 1.12-.2l-.135-.117a2.737 2.737 0 0 1-.985.148ZM186.232 13.34l-.128.111a.5.5 0 0 0 .5.035l-.116-.129a.466.466 0 0 1-.256-.017Z" class="cls-12"/><path d="M186.477 12.563a3.256 3.256 0 0 1 .007.794l.11.133a.107.107 0 0 0 .034-.038 1.863 1.863 0 0 0 .03-.725c-.013-.277-.079-.619.058-.735l-.109-.129c-.175.148-.152.429-.13.7Z" class="cls-18"/><path d="m207.817 26.473-.164.038a.478.478 0 0 0 .247.276l.093-.142a.332.332 0 0 1-.176-.172Z" class="cls-19"/><path d="M197.666 10.58a1.45 1.45 0 0 1 .6.285l.087-.146a1.537 1.537 0 0 0-.691-.308.571.571 0 0 0-.455.359l.148.082c.027-.043.15-.274.311-.272ZM180.606 17.029a.265.265 0 0 1 .27-.036l.057-.158a.431.431 0 0 0-.43.061c-.075.058-.154.109-.23.165l.108.132c.087-.064.195-.14.225-.164Z" class="cls-35"/><path d="M195.53 13.742a.228.228 0 0 1-.137.087l.018.167a.365.365 0 0 0 .209-.1Z" class="cls-62"/><path d="m186.036 24.446-.059.16c.126.044.248.083.341.115l.055-.159a12.804 12.804 0 0 1-.337-.116Z" class="cls-19"/><path d="M188.175 11.256a.992.992 0 0 0 .009-.28l-.167.011a.819.819 0 0 1 0 .218.128.128 0 0 1-.051.071l.14.1a.324.324 0 0 0 .069-.12Z" class="cls-12"/><path d="M191.25 13.251a.755.755 0 0 1 0 .218l.165.034a.857.857 0 0 0 0-.331Z" class="cls-6"/><path d="M190.8 14.13c0 .2-.141.382-.216.382l.025.167c.188-.023.339-.275.351-.44a.684.684 0 0 1 .071-.351l-.06-.182a.519.519 0 0 0-.171.424ZM205.063 21.1l-.132-.1a.177.177 0 0 1-.072.07l.058.158a.315.315 0 0 0 .146-.128Z" class="cls-19"/><path d="m193.829 9.047.053-.16c-.2-.06-.676-.16-.885.118l.13.107c.111-.183.519-.124.702-.065Z" class="cls-35"/><path d="M194.09 9.234a.5.5 0 0 1 .022.135l.168.047a.674.674 0 0 0-.03-.235.528.528 0 0 0-.368-.294l-.059.158a.388.388 0 0 1 .267.189Z" class="cls-8"/><path d="m193.408 9.739-.062.157c.536.238.919-.053.934-.48l-.168-.052c.015.336-.244.577-.704.375Z" class="cls-12"/><path d="m193.107 9.4-.164.036a.753.753 0 0 0 .4.457l.068-.154a.587.587 0 0 1-.304-.339Z" class="cls-6"/><path d="m193.131 9.106-.134-.1a.511.511 0 0 0-.054.434l.166-.03a.366.366 0 0 1 .022-.304ZM191.087 9.141a.588.588 0 0 0 .356.267.49.49 0 0 1 .04.28l.165.043c.021-.234-.03-.484-.183-.49-.111 0-.231-.194-.3-.265a.231.231 0 0 0-.062-.046l-.082.148c.018.002.034.022.066.063Z" class="cls-8"/><path d="m191.025 9.078.087-.145a1.893 1.893 0 0 0-1.192.2l.127.113a2.022 2.022 0 0 1 .978-.168Z" class="cls-35"/><path d="M191.483 9.688a.643.643 0 0 1-.064.267.365.365 0 0 1-.242.155c-.038-.009-.13-.167-.24-.242a.754.754 0 0 0-.42-.133v.169a.587.587 0 0 1 .33.1c.1.069.179.243.3.267a.457.457 0 0 0 .393-.192.664.664 0 0 0 .115-.357Z" class="cls-12"/><path d="m190.187 9.84.057.165a.412.412 0 0 1 .273-.1v-.17a.534.534 0 0 0-.33.105Z" class="cls-19"/><path d="M190.031 9.922a.117.117 0 0 1-.031-.006l-.058.159a.33.33 0 0 0 .093.016.386.386 0 0 0 .219-.09l-.063-.161c-.091.06-.126.082-.16.082Z" class="cls-12"/><path d="M189.7 9.549c-.009.208.063.47.239.527l.053-.16c-.1-.04-.131-.274-.124-.359Z" class="cls-6"/><path d="m190.047 9.249-.121-.117a.544.544 0 0 0-.223.422h.169a.386.386 0 0 1 .175-.305Z" class="cls-8"/><path d="M193.177 11.066a.622.622 0 0 0 .68.017.289.289 0 0 1 .192.039l.084-.147a.431.431 0 0 0-.359-.039.442.442 0 0 1-.491 0 .6.6 0 0 0-.8.165l.146.083a.436.436 0 0 1 .548-.118Z" class="cls-35"/><path d="M194.2 11.249c0 .042-.01.079-.016.113l.166.029c.007-.04.014-.086.018-.132.009-.106-.105-.218-.242-.286l-.079.149a.332.332 0 0 1 .153.127Z" class="cls-8"/><path d="M193.536 11.922c.126-.04.261-.017.389-.048a.532.532 0 0 0 .428-.488l-.167-.024c-.056.288-.212.33-.3.348a2.575 2.575 0 0 0-.4.052 6.058 6.058 0 0 1-.559.252c-.065 0-.1-.033-.174-.1l-.116.123a.418.418 0 0 0 .277.144c.172.007.429-.199.622-.259Z" class="cls-12"/><path d="M192.5 11.534h-.17a.854.854 0 0 0 .309.51l.111-.128a.721.721 0 0 1-.25-.382Z" class="cls-6"/><path d="m192.629 11.183-.143-.088a.84.84 0 0 0-.156.444h.169a.7.7 0 0 1 .13-.356ZM198.378 10.956a1.786 1.786 0 0 1 .426.745.577.577 0 0 1 .007.126l.166.033a.871.871 0 0 0-.008-.194 1.947 1.947 0 0 0-.474-.832 1.481 1.481 0 0 0-.142-.118l-.083.149a1.206 1.206 0 0 1 .108.091Z" class="cls-8"/><path d="M198.811 11.827a1.859 1.859 0 0 1-.083.469l.066.188c.095-.021.171-.381.183-.629Z" class="cls-6"/><path d="M198.728 12.3a2.194 2.194 0 0 1-.3-.439c-.149-.261-.3-.523-.5-.54l-.013.167c.146.023.311.355.442.578.253.43.378.441.449.42Z" class="cls-21"/><path d="M197.837 11.31c-.281 0-.437.225-.487.231h-.054l-.051.158a.473.473 0 0 0 .11.015c.171-.01.233-.232.482-.232a.377.377 0 0 1 .076.007l.008-.168a.62.62 0 0 0-.084-.011Z" class="cls-18"/><path d="m197.25 11.7.046-.16c-.047-.008-.054-.029-.084-.121a1.143 1.143 0 0 1 .147-.564l-.145-.087a1.213 1.213 0 0 0-.163.7c.041.126.078.2.199.232Z" class="cls-8"/><path d="M197.292 13.236a.512.512 0 0 0-.241.126l.109.128a.36.36 0 0 1 .153-.087 1.472 1.472 0 0 1 .549.07l.046-.162a1.637 1.637 0 0 0-.616-.075Z" class="cls-35"/><path d="M198.256 14.306c0-.33.084-.512-.055-.8a.483.483 0 0 0-.293-.192l-.053.16a.439.439 0 0 1 .184.09c.129.181.047.492.049.745a.906.906 0 0 0 .141.429.4.4 0 0 1 .028.129l.172.036a.585.585 0 0 0-.056-.253.755.755 0 0 1-.117-.344Z" class="cls-8"/><path d="m197.926 14.906-.083.146a.835.835 0 0 0 .428.1c.146-.01.158-.116.158-.254l-.172-.031a.453.453 0 0 1 0 .117.677.677 0 0 1-.331-.078Z" class="cls-12"/><path d="M197.72 14.485a1.129 1.129 0 0 0-.4-.448l-.11.129a.962.962 0 0 1 .367.419c.072.168.156.414.267.47l.078-.149a2.032 2.032 0 0 1-.202-.421Z" class="cls-18"/><path d="m197.111 13.794-.131.108a2.04 2.04 0 0 0 .242.27l.1-.135a2.051 2.051 0 0 1-.211-.243Z" class="cls-6"/><path d="M197.041 13.692c-.011-.028.024-.122.126-.207l-.116-.123a.4.4 0 0 0-.169.386.754.754 0 0 0 .1.16l.125-.114a.671.671 0 0 1-.066-.102Z" class="cls-63"/><path d="M199.912 14.19a.306.306 0 0 1 .22.111l.121-.117a.43.43 0 0 0-.406-.152c-.066.021-.135.146-.18.3l.154.074a.734.734 0 0 1 .091-.216Z" class="cls-35"/><path d="m200.413 15 .169.032a1.186 1.186 0 0 0-.334-.853l-.116.123a.991.991 0 0 1 .281.698Z" class="cls-8"/><path d="M200.326 15.291a.534.534 0 0 1-.379.06l-.092.142a.664.664 0 0 0 .579-.072.482.482 0 0 0 .148-.395l-.169-.026c.003.123-.013.247-.087.291Z" class="cls-12"/><path d="m199.859 15.5.086-.146c-.086-.064-.17-.3-.154-.794a.7.7 0 0 1 .028-.149l-.152-.079a.974.974 0 0 0-.045.223c-.009.351.023.8.237.945Z" class="cls-63"/><path d="M194.486 12.968a1.382 1.382 0 0 0-.7.181 1.855 1.855 0 0 1-.31.31c-.021.014-.094.055-.173.105l.093.141c.052-.033.162-.1.171-.1a2.079 2.079 0 0 0 .35-.343 1.484 1.484 0 0 1 .573-.121 1.681 1.681 0 0 1 .71.192l.063-.155a1.765 1.765 0 0 0-.777-.21Z" class="cls-35"/><path d="M195.78 13.551c.011-.113-.262-.265-.526-.379l-.058.157a1.7 1.7 0 0 1 .412.237.421.421 0 0 1-.019.067l.155.071a.681.681 0 0 0 .036-.153Z" class="cls-8"/><path d="m195.745 13.7-.156-.066a.369.369 0 0 1-.059.109l.084.156a.516.516 0 0 0 .131-.199ZM195.312 13.825a1.971 1.971 0 0 0-1.154.105c-.028.017-.059.032-.089.048l.058.16a1.64 1.64 0 0 0 .117-.063 1.808 1.808 0 0 1 1.027-.087.385.385 0 0 0 .146.007l-.024-.166a.223.223 0 0 1-.081-.004Z" class="cls-12"/><path d="M193.406 14.368a.477.477 0 0 1-.282.17.1.1 0 0 1-.059-.02l-.091.143a.267.267 0 0 0 .15.046.6.6 0 0 0 .4-.221 2.294 2.294 0 0 1 .606-.35l-.063-.158a2.267 2.267 0 0 0-.661.39Z" class="cls-19"/><path d="M192.807 14.209a.482.482 0 0 0 .175.457l.083-.148a.332.332 0 0 1-.091-.281Z" class="cls-6"/><path d="m193.392 13.705-.088-.144c-.429.238-.475.466-.5.653l.168.023c.009-.102.016-.309.42-.532Z" class="cls-8"/><path d="M190.808 13.146a.264.264 0 0 1 .3-.1l.075-.151a.426.426 0 0 0-.5.141c-.052.064-.129.16-.183.238l.141.093c.045-.067.167-.221.167-.221Z" class="cls-35"/><path d="m191.173 12.9-.07.153a.221.221 0 0 1 .147.2l.156-.074a.351.351 0 0 0-.233-.279Z" class="cls-8"/><path d="m191.411 13.5-.166-.029a.632.632 0 0 1-.046.163l.08.159c.07-.034.114-.182.132-.293Z" class="cls-12"/><path d="M191.2 13.632a.354.354 0 0 0-.09.006l-.031.2a.184.184 0 0 1 .15-.03.107.107 0 0 0 .056-.015Z" class="cls-6"/><path d="m191.084 13.828.025-.19a.275.275 0 0 0-.14.068l.057.188a.232.232 0 0 1 .058-.066Z" class="cls-62"/><path d="m190.509 14.471-.084.151a.248.248 0 0 0 .188.056l-.031-.166a.127.127 0 0 1-.073-.041Z" class="cls-12"/><path d="m190.43 14.626.078-.155a.358.358 0 0 1-.094-.225l-.167.034a.484.484 0 0 0 .183.346Z" class="cls-6"/><path d="M190.589 13.445a.527.527 0 0 1 .046-.074l-.137-.1a.66.66 0 0 0-.062.1 1.87 1.87 0 0 0-.188.911l.167-.039a1.72 1.72 0 0 1 .174-.798Z" class="cls-8"/><path d="M187.938 10.4c-.314 0-.729.456-.993.578a3.918 3.918 0 0 1-.576.1.825.825 0 0 0-.511.378l.14.092a.669.669 0 0 1 .4-.3 3.453 3.453 0 0 0 .62-.114c.224-.093.676-.546.9-.562l.079-.154a.1.1 0 0 0-.059-.018Z" class="cls-35"/><path d="m187.994 10.411-.074.157a1.131 1.131 0 0 1 .1.419l.168-.006c-.019-.231-.079-.511-.194-.57Z" class="cls-8"/><path d="m188.108 11.372-.145-.1a6.777 6.777 0 0 1-.733.293l.1.144a3.223 3.223 0 0 0 .778-.337Z" class="cls-19"/><path d="m186.607 11.863.1.133a2.312 2.312 0 0 1 .622-.285l-.1-.142a2.241 2.241 0 0 0-.622.294Z" class="cls-12"/><path d="M186.1 13.034c-.022-.088-.1-.342-.106-.374a2.528 2.528 0 0 1-.144-.742l-.168-.038a2.9 2.9 0 0 0 .177.919c.027.092.054.184.077.275a1.033 1.033 0 0 0 .173.382l.124-.116a.9.9 0 0 1-.133-.306Z" class="cls-6"/><path d="M185.854 11.86a.9.9 0 0 1 .144-.312l-.135-.1a1.083 1.083 0 0 0-.176.384.452.452 0 0 0-.006.053l.168.033a.522.522 0 0 1 .005-.058Z" class="cls-8"/><path d="M189.335 15.642a.353.353 0 0 1 .072.008l.055-.159a.458.458 0 0 0-.127-.018 2.243 2.243 0 0 0-.837.391l.1.138a1.937 1.937 0 0 1 .737-.36Z" class="cls-35"/><path d="M189.572 15.764a.635.635 0 0 1-.022.285l.159.055a.633.633 0 0 0 0-.432.459.459 0 0 0-.252-.181l-.06.158a.288.288 0 0 1 .175.115Z" class="cls-8"/><path d="m189.711 16.1-.161-.05a.748.748 0 0 1-.55.55l.065.157a.916.916 0 0 0 .646-.657Z" class="cls-102"/><path d="M188.982 16.6a2.382 2.382 0 0 1-.5.076c-.091 0-.184-.016-.2-.051l-.109.134a.449.449 0 0 0 .305.086 2.6 2.6 0 0 0 .588-.093L189 16.6Z" class="cls-12"/><path d="m188.179 16.765.1-.139a.466.466 0 0 1 .044-.3l-.166-.043c-.057.117-.092.396.022.482Z" class="cls-6"/><path d="m188.6 16-.1-.134a1.12 1.12 0 0 0-.341.422l.168.038A.99.99 0 0 1 188.6 16Z" class="cls-8"/><path d="m185.367 15.312.115.124a1.578 1.578 0 0 1 1.439-.388l.04-.165a1.756 1.756 0 0 0-1.594.429Z" class="cls-35"/><path d="M187.185 14.937a1.5 1.5 0 0 0-.224-.054l-.044.164a1.372 1.372 0 0 1 .215.05.341.341 0 0 1 .181.229l.161-.052a.5.5 0 0 0-.289-.337Z" class="cls-8"/><path d="M187.313 15.326a.744.744 0 0 1 .037.28l.166.045a.9.9 0 0 0-.044-.383Z" class="cls-6"/><path d="m187.516 15.646-.166-.04a.306.306 0 0 1-.057.182l.072.153a.359.359 0 0 0 .151-.295Z" class="cls-102"/><path d="M187.293 15.788h-.006c-.18 0-.679-.221-.866-.242l-.013.169a6.558 6.558 0 0 0 .88.241.172.172 0 0 0 .082-.021Z" class="cls-12"/><path d="m186.017 15.609.069.156a.4.4 0 0 1 .327-.046l.008-.17a.56.56 0 0 0-.404.06Z" class="cls-102"/><path d="M186.017 15.609a1.445 1.445 0 0 0-.343.326c-.166.182-.269.259-.331.259v.169c.17 0 .356-.2.443-.295a1.634 1.634 0 0 1 .31-.307Z" class="cls-6"/><path d="m185.259 16.148-.108.129a.343.343 0 0 0 .192.086v-.169h-.01a.39.39 0 0 1-.074-.046Z" class="cls-12"/><path d="m185.156 16.281.1-.133a.269.269 0 0 1-.089-.111l-.159.058a.436.436 0 0 0 .148.186Z" class="cls-18"/><path d="M184.987 15.965a.361.361 0 0 0 .026.135l.157-.063a.185.185 0 0 1-.014-.072.807.807 0 0 1 .331-.534l-.12-.119a.949.949 0 0 0-.38.653Z" class="cls-8"/><path d="M183.881 15.467a.1.1 0 0 1 .062.014l.057-.161a.279.279 0 0 0-.116-.022 1.118 1.118 0 0 0-.739.4l.128.11a.962.962 0 0 1 .608-.341Z" class="cls-35"/><path d="m184 15.32-.06.158c.069.03.049.153.039.214l.174-.025a.3.3 0 0 0-.153-.347Z" class="cls-8"/><path d="M183.977 15.687a1.219 1.219 0 0 1-.132.335l.148.08a1.306 1.306 0 0 0 .157-.435Z" class="cls-6"/><path d="M183.613 16.332a.358.358 0 0 1-.193.091.511.511 0 0 1-.135-.08l-.113.126a.683.683 0 0 0 .211.119.48.48 0 0 0 .34-.128 1.413 1.413 0 0 0 .277-.36l-.151-.075a1.239 1.239 0 0 1-.236.307Z" class="cls-12"/><path d="m183.15 16.146-.164.037a.532.532 0 0 0 .192.29l.107-.13a.368.368 0 0 1-.135-.197Z" class="cls-6"/><path d="M183.144 16.1a.485.485 0 0 1 .13-.3l-.132-.1a.643.643 0 0 0-.166.409.342.342 0 0 0 .011.085l.163-.042a.184.184 0 0 1-.006-.052ZM180.933 16.835l-.061.157a.243.243 0 0 1 .179.2l.158-.064a.411.411 0 0 0-.276-.293Z" class="cls-8"/><path d="M181.049 17.182a.513.513 0 0 1 0 .215l.165.034a.682.682 0 0 0-.007-.308Z" class="cls-6"/><path d="M181.021 17.516a.6.6 0 0 1-.211.059.507.507 0 0 0-.3.151c-.078.073-.252.211-.341.133l-.115.122c.138.124.324.072.5-.075.106-.085.133-.142.274-.164.113-.017.309-.044.35-.171a1.134 1.134 0 0 0 .036-.145l-.166-.029a.988.988 0 0 1-.027.119Z" class="cls-12"/><path d="m180.058 17.985.109-.126a.311.311 0 0 1-.066-.232l-.168-.012a.449.449 0 0 0 .125.37Z" class="cls-6"/><path d="m180.386 17.189-.113-.128a1.363 1.363 0 0 0-.12.1.672.672 0 0 0-.22.463l.168.007a.508.508 0 0 1 .165-.345.973.973 0 0 1 .12-.097Z" class="cls-8"/><path d="m180.763 19.1.053-.166a1.38 1.38 0 0 0-1.243.471l.143.088a1.2 1.2 0 0 1 1.047-.393Z" class="cls-35"/><path d="M181.17 19.158a.37.37 0 0 1 0 .258l.145.09c.1-.208.022-.473-.058-.5a1.8 1.8 0 0 0-.446-.072l-.047.166a1.818 1.818 0 0 1 .406.058Z" class="cls-8"/><path d="m181.169 19.416-.006.015c-.016.041-.084.14-.308.133a.666.666 0 0 0-.493.153l.116.122a.536.536 0 0 1 .381-.106.448.448 0 0 0 .46-.238Z" class="cls-12"/><path d="M180.214 19.966a.254.254 0 0 1-.12.15l.1.138a.422.422 0 0 0 .185-.244.336.336 0 0 1 .107-.176l-.122-.117a.519.519 0 0 0-.15.249Z" class="cls-6"/><path d="M180.094 20.116a.5.5 0 0 1-.239.036v.169a.6.6 0 0 0 .347-.07Z" class="cls-62"/><path d="M179.818 20.143c-.006-.006-.071-.057-.089-.074l-.108.13.089.073a.25.25 0 0 0 .145.049v-.169a.1.1 0 0 1-.037-.009Z" class="cls-12"/><path d="M179.663 20.008a.42.42 0 0 1-.047-.206l-.167-.006a.6.6 0 0 0 .067.3.566.566 0 0 0 .11.112l.1-.135a.486.486 0 0 1-.063-.065Z" class="cls-6"/><path d="m179.716 19.5-.138-.1a.75.75 0 0 0-.129.4h.167a.567.567 0 0 1 .1-.3Z" class="cls-8"/><path d="m182.124 20.534.051-.164a1.4 1.4 0 0 0-1.248.778l.137.1a1.274 1.274 0 0 1 1.06-.714Z" class="cls-35"/><path d="M182.416 20.533c-.022-.1-.125-.148-.241-.163l-.056.164a.234.234 0 0 1 .131.033.483.483 0 0 1 .013.188h.17a.736.736 0 0 0-.017-.222Z" class="cls-8"/><path d="M182.263 20.755a1.241 1.241 0 0 1-.147.356l.148.081a1.272 1.272 0 0 0 .169-.446Z" class="cls-6"/><path d="M182.116 21.111a1.825 1.825 0 0 1-.229.275l.081.148a1.558 1.558 0 0 0 .3-.347Z" class="cls-62"/><path d="M181.887 21.386c-.138.073-.279-.018-.545.126-.148.079-.239.288-.3.33a.423.423 0 0 1-.221.066l-.009.169a.587.587 0 0 0 .325-.093c.111-.073.181-.261.294-.325.214-.121.362-.021.549-.127Z" class="cls-19"/><path d="m180.773 21.9-.114.133a.282.282 0 0 0 .153.039v-.169a.226.226 0 0 1-.039-.003Z" class="cls-12"/><path d="m181.066 21.243-.139-.095c-.077.121-.148.245-.214.352v.01l.156.066a7.95 7.95 0 0 1 .197-.333Z" class="cls-8"/><path d="M180.643 22.027a.148.148 0 0 0 .021.013l.109-.136a.781.781 0 0 1 .1-.336l-.162-.057c-.059.098-.172.421-.068.516Z" class="cls-6"/><path d="M179.721 23.446c.094-.021.146 0 .277.1l.094-.139c-.173-.126-.247-.149-.372-.131a1.1 1.1 0 0 0-.447.234l.106.132a1.208 1.208 0 0 1 .342-.196Z" class="cls-35"/><path d="m180.092 23.406-.1.135a.8.8 0 0 1 .205.2v.023l.158-.067a.776.776 0 0 0-.263-.291Z" class="cls-8"/><path d="m180.358 23.7-.156.073a.264.264 0 0 1-.009.172l.13.108a.449.449 0 0 0 .035-.353Z" class="cls-6"/><path d="M180.193 23.941a.254.254 0 0 1-.161.107 1.672 1.672 0 0 0-.416.27.447.447 0 0 1-.26.079v.168a.607.607 0 0 0 .359-.107 1.8 1.8 0 0 1 .374-.25.437.437 0 0 0 .244-.166Z" class="cls-19"/><path d="m179.212 24.325-.09.142a.454.454 0 0 0 .234.1V24.4a.438.438 0 0 1-.144-.075Z" class="cls-12"/><path d="M179.034 24.4a.829.829 0 0 0 .094.071l.084-.146a.613.613 0 0 1-.06-.045.412.412 0 0 1-.059-.168l-.166.028a.522.522 0 0 0 .107.26Z" class="cls-6"/><path d="M179.1 23.905a1.286 1.286 0 0 1 .286-.268l-.111-.128a1.359 1.359 0 0 0-.32.311.52.52 0 0 0-.025.325l.165-.033a.392.392 0 0 1 .005-.207Z" class="cls-8"/><path d="M184.678 20.887a.5.5 0 0 1 .381-.15.4.4 0 0 1 .127.016l.088.088.128-.111-.106-.105a.378.378 0 0 0-.237-.057.664.664 0 0 0-.513.214 1.889 1.889 0 0 1-.306.243l.116.124a1.6 1.6 0 0 0 .322-.262Z" class="cls-35"/><path d="M185.274 20.841a.659.659 0 0 1 .218.352.136.136 0 0 1-.013.057l.154.069c.1-.217-.1-.451-.237-.595Z" class="cls-8"/><path d="m185.635 21.314-.156-.064a.187.187 0 0 1-.032.047.5.5 0 0 1-.116.028l.065.16a.346.346 0 0 0 .164-.062.362.362 0 0 0 .075-.109Z" class="cls-19"/><path d="m184.651 21.511.069.156a1.491 1.491 0 0 1 .682-.183l-.071-.159a1.5 1.5 0 0 0-.68.186Z" class="cls-62"/><path d="m184.726 21.663-.075-.152c-.215.134-.4.36-.573.464 0 0-.409.27-.5.254l.033.167a1.964 1.964 0 0 0 .561-.279c.228-.147.357-.327.554-.454Z" class="cls-19"/><path d="m183.456 22.188-.089.139a.361.361 0 0 0 .247.068l-.04-.166a.221.221 0 0 1-.118-.041Z" class="cls-12"/><path d="m183.373 22.331.083-.143c-.094-.059-.218-.3-.011-.668l-.127-.113c-.297.486-.1.82.055.924Z" class="cls-6"/><path d="M183.592 21.4a1.46 1.46 0 0 0 .764-.247l-.109-.129a1.181 1.181 0 0 1-.682.209.384.384 0 0 0-.254.188l.134.1a.236.236 0 0 1 .147-.121Z" class="cls-8"/><path d="m181.692 24.843.045-.163a1.31 1.31 0 0 0-.888.208l.109.129a1.174 1.174 0 0 1 .734-.174Z" class="cls-35"/><path d="m181.737 24.68-.052.161a.2.2 0 0 1 .165.2l.165-.041a.36.36 0 0 0-.278-.32Z" class="cls-8"/><path d="M181.85 25.036a.336.336 0 0 1-.039.186l.14.1a.5.5 0 0 0 .063-.33Z" class="cls-6"/><path d="m180.849 25.423-.091.143a1 1 0 0 0 1.2-.255l-.145-.089c-.213.361-.835.285-.964.201Z" class="cls-12"/><path d="M180.63 25.271a.281.281 0 0 0 .134.3l.085-.146a.131.131 0 0 1-.035-.03.141.141 0 0 1-.016-.11Z" class="cls-6"/><path d="M180.81 25.228a.334.334 0 0 1 .148-.211l-.1-.134a.5.5 0 0 0-.207.3.559.559 0 0 0-.02.1l.169.006a.323.323 0 0 1 .01-.061Z" class="cls-8"/><path d="M176.354 25.121a5.767 5.767 0 0 1 .819-.286.192.192 0 0 1 .11.01l.069-.155a.378.378 0 0 0-.181-.025 4.349 4.349 0 0 0-.926.327.343.343 0 0 0-.092.2l.158.072a.256.256 0 0 1 .043-.143Z" class="cls-35"/><path d="m177.352 24.69-.075.152c.043.019.089.078.108.254a.334.334 0 0 1-.066.2l.144.089a.481.481 0 0 0 .09-.3c-.027-.249-.109-.353-.201-.395Z" class="cls-8"/><path d="m177.467 25.374-.148-.082a.914.914 0 0 1-.235.246l.085.148a1.191 1.191 0 0 0 .298-.312Z" class="cls-12"/><path d="m176.622 25.789.008.174a2.152 2.152 0 0 0 .546-.282l-.092-.143a2.062 2.062 0 0 1-.462.251Z" class="cls-62"/><path d="M176.622 25.789a.514.514 0 0 1-.159.033l-.007.168a.616.616 0 0 0 .181-.029Z" class="cls-19"/><path d="m176.367 25.786-.107.13a.291.291 0 0 0 .2.074v-.168a.115.115 0 0 1-.093-.036Z" class="cls-12"/><path d="M176.144 25.553a.785.785 0 0 0 .092.34.281.281 0 0 0 .031.029l.1-.136a.733.733 0 0 1-.057-.264Z" class="cls-6"/><path d="m176.312 25.252-.159-.064a1.345 1.345 0 0 0-.008.371l.165-.037a1.509 1.509 0 0 1 .002-.27Z" class="cls-8"/><path d="m180.111 26.591.083-.147a1.1 1.1 0 0 1-.271-.23.154.154 0 0 0-.116-.038.524.524 0 0 0-.427.265l.141.1a.36.36 0 0 1 .289-.192 1.189 1.189 0 0 0 .301.242Z" class="cls-35"/><path d="M180.628 26.665a33.067 33.067 0 0 1-.44-.225l-.077.151c.024.014.427.218.444.226a.055.055 0 0 1 .036.044l.17.02a.228.228 0 0 0-.133-.216Z" class="cls-8"/><path d="M180.591 26.861a.221.221 0 0 1-.059.169l.129.108a.415.415 0 0 0 .1-.264Z" class="cls-6"/><path d="M180.532 27.03c-.117.133-.5.1-.539.1l-.007.169c.041 0 .521.053.68-.164Z" class="cls-62"/><path d="m179.653 27.042-.072.152a1.237 1.237 0 0 0 .412.1v-.169a1.1 1.1 0 0 1-.34-.083Z" class="cls-19"/><path d="M179.441 27.1a.578.578 0 0 0 .147.094l.065-.155a.455.455 0 0 1-.086-.054Z" class="cls-12"/><path d="m179.5 26.9-.142.088a.4.4 0 0 0 .094.117l.12-.12a.277.277 0 0 1-.072-.085Z" class="cls-19"/><path d="m179.469 26.751-.167.011a.479.479 0 0 0 .054.235l.139-.094a.308.308 0 0 1-.026-.152Z" class="cls-6"/><path d="m179.521 26.537-.138-.1a.625.625 0 0 0-.081.332l.167-.017a.457.457 0 0 1 .052-.215Z" class="cls-8"/><path d="M183.449 25.911c-.085-.047-.162-.124-.262-.124a.357.357 0 0 0-.317.244l.147.086a.24.24 0 0 1 .169-.162 1.087 1.087 0 0 1 .182.1.526.526 0 0 0 .264.066l.034-.171a.357.357 0 0 1-.217-.039Z" class="cls-35"/><path d="M183.846 25.936c-.053 0-.134.014-.187.019l-.027.17c.053 0 .17-.02.214-.02.1 0 .169.039.233.25a.365.365 0 0 1 .009.153l.158.07a.559.559 0 0 0 0-.272c-.062-.184-.146-.37-.4-.37Z" class="cls-8"/><path d="m184.247 26.572-.159-.064a.378.378 0 0 1-.017.073l.093.145c.053-.026.068-.089.083-.154Z" class="cls-6"/><path d="M184.071 26.581c-.081 0-.129-.027-.236-.029a2.111 2.111 0 0 0-.535.115l.03.167a2.143 2.143 0 0 1 .514-.113c.1 0 .233.063.327 0Z" class="cls-19"/><path d="m183.109 26.643-.095.14a.394.394 0 0 0 .322.049l-.036-.165a.224.224 0 0 1-.191-.024Z" class="cls-12"/><path d="m183.024 26.553-.141.09a.419.419 0 0 0 .137.143l.089-.143a.26.26 0 0 1-.085-.09Z" class="cls-19"/><path d="m182.977 26.431-.16.055a.572.572 0 0 0 .07.164l.137-.1a.418.418 0 0 1-.047-.119Z" class="cls-6"/><path d="m183.017 26.117-.144-.092a.687.687 0 0 0-.054.468l.158-.062a.546.546 0 0 1 .04-.314Z" class="cls-8"/><path d="M182.912 17.915a1.5 1.5 0 0 1 .6-.223 1.808 1.808 0 0 1 .327.053l.056-.16a1.886 1.886 0 0 0-.383-.061 1.462 1.462 0 0 0-.634.219.579.579 0 0 0-.235.187l.137.1a.335.335 0 0 1 .132-.115Z" class="cls-35"/><path d="m183.887 17.584-.05.161a1.994 1.994 0 0 1 .324.094l.131-.109c-.032-.056-.258-.112-.405-.146Z" class="cls-8"/><path d="m184.286 17.722-.125.117a.247.247 0 0 1-.01.182l.154.067a.375.375 0 0 0-.019-.366Z" class="cls-6"/><path d="M184.151 18.021a.291.291 0 0 1-.156.157c-.114.049-.671.438-.8.5l.073.153c.109-.053.713-.466.8-.5a.453.453 0 0 0 .246-.251Z" class="cls-19"/><path d="m183.105 18.716.019.168a.663.663 0 0 0 .149-.053l-.079-.15a.66.66 0 0 1-.089.035Z" class="cls-12"/><path d="m182.767 18.721-.019.168a1.021 1.021 0 0 0 .381-.006l-.024-.167a.878.878 0 0 1-.338.005Z" class="cls-19"/><path d="m182.688 18.669-.106.132a.357.357 0 0 0 .173.09l.012-.17a.28.28 0 0 1-.079-.052Z" class="cls-12"/><path d="m182.581 18.5-.168.024a.478.478 0 0 0 .175.286l.1-.137a.3.3 0 0 1-.107-.173Z" class="cls-6"/><path d="M182.583 18.439a1.415 1.415 0 0 1 .195-.411l-.132-.1a1.607 1.607 0 0 0-.227.476.317.317 0 0 0-.005.126l.167-.03a.137.137 0 0 1 .002-.061Z" class="cls-8"/><path d="M197.384 16.227c-.307.027-.507-.178-.755-.171a2.2 2.2 0 0 0-.364.142l.11.135a2.686 2.686 0 0 1 .272-.109c.14-.009.426.2.742.171a1.2 1.2 0 0 1 .369.1l.083-.149a1.574 1.574 0 0 0-.457-.119Z" class="cls-35"/><path d="M198.291 16.7a.79.79 0 0 0-.457-.355l-.076.151c.172.069.34.166.374.262a.32.32 0 0 1-.021.221l.15.078a.516.516 0 0 0 .03-.357Z" class="cls-8"/><path d="M198.111 16.977a.508.508 0 0 1-.129.2.762.762 0 0 1-.264-.049 2.806 2.806 0 0 0-.993-.334v.169a2.693 2.693 0 0 1 .911.315.733.733 0 0 0 .411.053.575.575 0 0 0 .212-.279Z" class="cls-12"/><path d="M196.725 16.79c-.133.006-.35.134-.456.141l-.01.168c.142 0 .358-.133.477-.141l-.011-.168Z" class="cls-103"/><path d="M196.269 16.931a.43.43 0 0 1-.148-.069l-.11.13a.564.564 0 0 0 .256.107v-.168Z" class="cls-12"/><path d="m196.018 17 .1-.134c-.061-.043-.164-.108-.16-.167l-.167.023c.009.133.15.218.227.278Z" class="cls-6"/><path d="M196.053 16.489c.054-.033.191-.1.322-.156l-.1-.138a3.786 3.786 0 0 0-.306.149.431.431 0 0 0-.171.38l.166-.029a.278.278 0 0 1 .089-.206Z" class="cls-8"/><path d="M199.671 17.146a1 1 0 0 0-.407.307 2.414 2.414 0 0 0-.506.655 2.356 2.356 0 0 0-.139.541l.168.011a2.321 2.321 0 0 1 .161-.569 3.313 3.313 0 0 1 .444-.527.882.882 0 0 1 .306-.252 1 1 0 0 1 .392.125l.106-.136a1.119 1.119 0 0 0-.525-.155Z" class="cls-35"/><path d="M200.471 17.467a1.884 1.884 0 0 0-.28-.169l-.1.139a1.764 1.764 0 0 1 .277.163c.017.014.044.037.015.124l.153.071a.267.267 0 0 0-.065-.328Z" class="cls-8"/><path d="M200.382 17.724a.5.5 0 0 1-.2.252l.038.164a.611.611 0 0 0 .316-.351Z" class="cls-12"/><path d="m200.07 18.177.158-.038-.045-.163c-.019.005-.115.03-.15.036a.521.521 0 0 0-.184.053l.068.156a.41.41 0 0 1 .153-.044Z" class="cls-103"/><path d="M199.628 18.267a3.822 3.822 0 0 1-.511.6.341.341 0 0 1-.214.015l-.09.143a.475.475 0 0 0 .377-.007 3.028 3.028 0 0 0 .568-.641.676.676 0 0 1 .165-.157l-.074-.152a.818.818 0 0 0-.221.199Z" class="cls-12"/><path d="m198.82 19.025.083-.146a.2.2 0 0 1-.116-.219l-.167-.018a.363.363 0 0 0 .2.383Z" class="cls-6"/><path d="M201.949 16.876a.333.333 0 0 1 .28-.418 1.766 1.766 0 0 1 .627.094 3.7 3.7 0 0 1 .548.395 2.272 2.272 0 0 0 .225.127l.116-.13a1.96 1.96 0 0 1-.241-.133 3.532 3.532 0 0 0-.578-.412 1.952 1.952 0 0 0-.721-.109c-.478.064-.5.644-.351.739l.116-.152Z" class="cls-35"/><path d="M204 17.721a1.528 1.528 0 0 1 .092.4l.169.018a1.841 1.841 0 0 0-.121-.531 1.48 1.48 0 0 0-.235-.548.567.567 0 0 0-.163-.117l-.109.134a.526.526 0 0 1 .146.095 1.646 1.646 0 0 1 .221.549Z" class="cls-8"/><path d="M204.088 18.118a.312.312 0 0 1-.05.206l.087.15a.427.427 0 0 0 .132-.344Z" class="cls-63"/><path d="m203.786 18.3-.035.165c.089.02.32.055.382.006l-.095-.145a.9.9 0 0 1-.252-.026Z" class="cls-62"/><path d="m203.4 18.087-.121.118a.885.885 0 0 0 .485.26l.027-.167a.7.7 0 0 1-.391-.211Z" class="cls-12"/><path d="M203.363 18.034a4.584 4.584 0 0 0-.379-.6 1.094 1.094 0 0 0-.25-.316l-.11.128a1.27 1.27 0 0 1 .266.356 3.592 3.592 0 0 1 .318.5.409.409 0 0 0 .071.112l.116-.124a.208.208 0 0 1-.032-.056Z" class="cls-62"/><path d="m201.97 16.877-.124.147a.092.092 0 0 0 .049.02 1.232 1.232 0 0 1 .736.2l.1-.133a1.341 1.341 0 0 0-.761-.234Z" class="cls-12"/><path d="M202.226 18.858a2.141 2.141 0 0 0 0-.23.2.2 0 0 0-.191-.172 4.056 4.056 0 0 0-.9.144.954.954 0 0 0-.374.22l.142.1a.82.82 0 0 1 .284-.156 3.219 3.219 0 0 1 .862-.129c.015.011.023.042.018.1a.6.6 0 0 0 .134.459l.137-.1c-.038-.022-.091-.054-.112-.236Z" class="cls-35"/><path d="m202.324 19.089-.132.107c.038.032.256.211.341.286l.111-.127a8.96 8.96 0 0 0-.32-.266Z" class="cls-8"/><path d="m202.637 19.349-.1.133c.052.045.093.084.123.114a.31.31 0 0 1-.033.095l.145.087c.062-.118.079-.226.02-.288-.041-.039-.092-.09-.155-.141Z" class="cls-63"/><path d="m202.771 19.771-.148-.08a.487.487 0 0 1-.222.225l.043.163a.636.636 0 0 0 .327-.308Z" class="cls-62"/><path d="M202.4 19.916a.054.054 0 0 1-.02 0 2.2 2.2 0 0 1-.619-.177l-.047.165a1.724 1.724 0 0 0 .736.17Z" class="cls-12"/><path d="M201.762 19.742a.856.856 0 0 1-.153-.148.968.968 0 0 0-.191-.181l-.089.142c.106.068.194.227.338.326a.369.369 0 0 0 .055.029l.04-.168Z" class="cls-62"/><path d="M201.215 19.365c-.128 0-.365.043-.4.034a.39.39 0 0 1-.169-.1l-.16.065a.483.483 0 0 0 .283.193 2.921 2.921 0 0 0 .446-.027.213.213 0 0 1 .121.026l.082-.147a.388.388 0 0 0-.203-.044Z" class="cls-12"/><path d="M200.629 19.278s-.007-.019.016-.054a1.417 1.417 0 0 1 .249-.307l-.136-.1a1.632 1.632 0 0 0-.255.318.216.216 0 0 0-.013.243l.156-.073a.085.085 0 0 1-.017-.027Z" class="cls-8"/><path d="M204.3 20.318c.062-.085.148-.283.241-.292s.181.158.323.466l.162-.056c-.074-.142-.225-.582-.485-.578-.193 0-.288.224-.366.345-.05.077-.237.191-.306.368l.163.049c.045-.109.221-.239.268-.302Z" class="cls-35"/><path d="m205.021 20.429-.158.063c.05.105.1.214.118.267l.162-.047a2.706 2.706 0 0 0-.122-.283Z" class="cls-8"/><path d="m205.14 20.705-.159.054a.248.248 0 0 1 0 .134l.157.062a.421.421 0 0 0 .002-.25Z" class="cls-6"/><path d="m205.135 20.949-.159-.056a.41.41 0 0 1-.045.107l.127.11a.542.542 0 0 0 .077-.161ZM204.728 21.089a1.5 1.5 0 0 1-.626-.167l-.1.132a1.618 1.618 0 0 0 .731.2.515.515 0 0 0 .195-.031l-.064-.156a.343.343 0 0 1-.136.022Z" class="cls-12"/><path d="m204.022 20.865-.151.073a.327.327 0 0 0 .132.12l.1-.136a.319.319 0 0 1-.081-.057Z" class="cls-6"/><path d="m204.031 20.62-.16-.057a.477.477 0 0 0 0 .382l.147-.08a.314.314 0 0 1 .013-.245Z" class="cls-8"/><path d="M206.39 21.848c-.24.009-.653.026-.742.018a.4.4 0 0 0-.341.107l.126.114a.22.22 0 0 1 .194-.054c.149.015.452-.01.773-.017a2.527 2.527 0 0 1 .624.092l.053-.16a2.576 2.576 0 0 0-.687-.1Z" class="cls-35"/><path d="m207.077 21.948-.061.158c.109.032.193.076.2.137a2.059 2.059 0 0 1-.014.266l.164.052a2.62 2.62 0 0 0 .018-.327c-.011-.15-.142-.234-.307-.286Z" class="cls-8"/><path d="M207.2 22.509a1.246 1.246 0 0 1-.071.344l.112.126a.782.782 0 0 0 .123-.425Z" class="cls-6"/><path d="m207.247 22.973-.119-.12a.5.5 0 0 1-.327.107l.015.17a.668.668 0 0 0 .431-.157Z" class="cls-12"/><path d="M206.7 22.925a.839.839 0 0 0-.232-.161l-.067.155a.645.645 0 0 1 .181.127.343.343 0 0 0 .245.084l-.022-.17a.167.167 0 0 1-.105-.035Z" class="cls-19"/><path d="M205.911 22.674h-.214a.5.5 0 0 1-.183-.041l-.115.13a.645.645 0 0 0 .29.08h.222a1.079 1.079 0 0 1 .491.078l.062-.157a1.258 1.258 0 0 0-.553-.09Z" class="cls-12"/><path d="m205.4 22.537-.148.085a.468.468 0 0 0 .154.142l.109-.134a.3.3 0 0 1-.115-.093Z" class="cls-6"/><path d="m205.439 22.081-.132-.108a.531.531 0 0 0-.051.656l.143-.092a.353.353 0 0 1 .04-.456Z" class="cls-8"/><path d="M204.574 23.532a.5.5 0 0 0-.388.313.962.962 0 0 0 .016.254l.169-.008a1.031 1.031 0 0 1-.02-.212.37.37 0 0 1 .216-.178.793.793 0 0 1 .221.2l.135-.1c-.117-.145-.263-.269-.349-.269Z" class="cls-35"/><path d="m204.918 23.793-.13.106a.675.675 0 0 1 .138.218l.164-.039a.909.909 0 0 0-.172-.285Z" class="cls-8"/><path d="m205.088 24.071-.162.046v.124l.168.025a.881.881 0 0 0-.006-.195Z" class="cls-6"/><path d="M204.89 24.339a1.238 1.238 0 0 1-.371.022l-.079.162a1.2 1.2 0 0 0 .538-.04.256.256 0 0 0 .117-.224l-.168-.018c-.001.059-.01.079-.037.098Z" class="cls-12"/><path d="m204.435 24.351-.107.141a.314.314 0 0 0 .118.032l.073-.163a.777.777 0 0 1-.084-.01Z" class="cls-6"/><path d="M204.435 24.351a1.363 1.363 0 0 1-.064-.26h-.171a.823.823 0 0 0 .133.4l.1-.145Z" class="cls-8"/><path d="m207.883 25.958.086.146c.168-.061.47-.126.574-.023l.122-.117c-.189-.19-.616-.078-.782-.006Z" class="cls-35"/><path d="m208.657 25.957-.114.124a.511.511 0 0 1 .164.324l.172.035a.7.7 0 0 0-.222-.483Z" class="cls-8"/><path d="M208.871 26.56a.657.657 0 0 0 .008-.126l-.172-.029a.425.425 0 0 1 0 .094l-.011.007.127.116a.119.119 0 0 0 .048-.062Z" class="cls-12"/><path d="M208.7 26.506a.96.96 0 0 1-.19.076l.019.17a.919.919 0 0 0 .3-.135Z" class="cls-19"/><path d="M208.053 26.665a.325.325 0 0 1-.06-.02l-.1.139a.459.459 0 0 0 .127.047 1.686 1.686 0 0 0 .513-.081l-.026-.168a1.648 1.648 0 0 1-.454.083Z" class="cls-12"/><path d="M207.633 26.3a.615.615 0 0 0 .021.215l.163-.045a.463.463 0 0 1-.016-.163Z" class="cls-6"/><path d="m207.969 26.1-.081-.149a.365.365 0 0 0-.256.355h.169c.005-.057-.001-.14.168-.206Z" class="cls-8"/><path d="M205.563 25.642c-.164 0-.308.186-.444.293a.36.36 0 0 1-.227.085c-.148 0-.489-.163-.634-.16a.525.525 0 0 0-.3.147l.135.1c.076-.059.127-.086.171-.082.173.017.376.142.6.16.342.026.545-.373.69-.379a.573.573 0 0 1 .222.087l.079-.149a.635.635 0 0 0-.292-.102Z" class="cls-35"/><path d="M206.086 26.045a.4.4 0 0 0-.228-.3l-.073.153a.463.463 0 0 1 .09.073c.032.035.042.057.042.074v.143l.171.009c.001-.053-.002-.12-.002-.152Z" class="cls-8"/><path d="M206.063 26.371a.4.4 0 0 0 .027-.182h-.171a.4.4 0 0 1-.007.108.125.125 0 0 1-.02.017l.111.127a.225.225 0 0 0 .06-.07Z" class="cls-19"/><path d="M205.892 26.312c-.12.071-.221.08-.3.139a2.247 2.247 0 0 0-.283.323l.092.147c.126-.119.178-.25.292-.334a2.861 2.861 0 0 0 .316-.153Z" class="cls-6"/><path d="m204.03 26.64-.1.138a2.036 2.036 0 0 0 1.273.235l-.039-.163a1.914 1.914 0 0 1-1.134-.21Z" class="cls-12"/><path d="M205.31 26.774a.239.239 0 0 1-.145.076l.032.165a.456.456 0 0 0 .212-.1Z" class="cls-19"/><path d="m203.878 26.532-.158.057a.467.467 0 0 0 .218.193l.092-.142a.385.385 0 0 1-.152-.108Z" class="cls-6"/><path d="m204.1 26.111-.129-.11c-.181.155-.316.454-.245.595l.155-.064a.531.531 0 0 1 .219-.421Z" class="cls-8"/><path d="M201.674 23.053a1.171 1.171 0 0 0-.834.345l.154.074a1.1 1.1 0 0 1 .7-.25 1.387 1.387 0 0 1 .49.12l.066-.155a1.585 1.585 0 0 0-.576-.134Z" class="cls-35"/><path d="M202.429 23.274a1.434 1.434 0 0 0-.185-.089l-.06.157a1.228 1.228 0 0 1 .159.077.777.777 0 0 1 .282.388l.168-.024a.923.923 0 0 0-.364-.509Z" class="cls-8"/><path d="M202.625 23.807a.49.49 0 0 1 .012.19l.163.05a.658.658 0 0 0-.009-.271Z" class="cls-6"/><path d="m202.8 24.039-.163-.039v.022a.2.2 0 0 1-.053.117h-.02l.086.151a.328.328 0 0 0 .15-.251Z" class="cls-19"/><path d="M202.561 24.14h-.043a.8.8 0 0 1-.3-.061c-.05-.025-.208-.124-.237-.141l-.072.154c.075.046.155.1.234.138a.964.964 0 0 0 .371.079.333.333 0 0 0 .136-.023Z" class="cls-12"/><path d="m201.816 23.854-.047-.016-.058.16c.012 0 .032.008.043.013a1.176 1.176 0 0 1 .165.086l.066-.157a1.116 1.116 0 0 0-.169-.086Z" class="cls-103"/><path d="M201.321 23.771c-.079 0-.174-.013-.25-.024l-.065.16c.106.018.243.029.306.033a1.558 1.558 0 0 1 .406.06l.051-.162a1.691 1.691 0 0 0-.448-.067Z" class="cls-12"/><path d="m200.916 23.7-.151.079a.331.331 0 0 0 .248.126l.058-.161a.355.355 0 0 1-.155-.044Z" class="cls-6"/><path d="M200.908 23.692a.377.377 0 0 1 .086-.22l-.15-.081c-.049.073-.16.267-.075.4l.147-.086Z" class="cls-8"/><path d="M201.154 25.8c-.184.054-.458.094-.643.132a.355.355 0 0 0-.229.176l.159.065a.165.165 0 0 1 .1-.076c.186-.039.458-.077.656-.135a2.139 2.139 0 0 1 .53-.146.694.694 0 0 1 .331.082l.112-.129a.838.838 0 0 0-.443-.121 2.105 2.105 0 0 0-.573.152Z" class="cls-35"/><path d="M202.342 26.054a.335.335 0 0 0-.174-.292l-.106.133c.1.056.112.116.111.156a1.739 1.739 0 0 1-.027.267l.167.014a2.147 2.147 0 0 0 .029-.278Z" class="cls-8"/><path d="M202.146 26.318a1.546 1.546 0 0 1-.121.4l.125.113a1.444 1.444 0 0 0 .164-.5Z" class="cls-19"/><path d="m201.952 26.8.049.161a.3.3 0 0 0 .153-.139l-.129-.107c-.025.051-.051.085-.073.085Z" class="cls-6"/><path d="M201.905 26.807a.251.251 0 0 1-.1-.023l-.074.151a.42.42 0 0 0 .175.041.32.32 0 0 0 .1-.016l-.055-.158a.181.181 0 0 1-.046.005Z" class="cls-12"/><path d="M201.552 26.565a.6.6 0 0 0-.434-.18v.17a.431.431 0 0 1 .3.117.924.924 0 0 0 .314.266l.068-.154a.755.755 0 0 1-.248-.219Z" class="cls-19"/><path d="m200.707 26.388-.031.17a3.664 3.664 0 0 1 .448 0l-.006-.17a3.686 3.686 0 0 0-.411 0Z" class="cls-12"/><path d="M200.593 26.391a.5.5 0 0 1-.056 0l-.021.168H200.682l.025-.17Z" class="cls-19"/><path d="m200.464 26.344-.106.13a.33.33 0 0 0 .164.083l.015-.168a.248.248 0 0 1-.073-.045Z" class="cls-6"/><path d="M200.4 26.274a.294.294 0 0 1 .044-.1l-.156-.071a.381.381 0 0 0-.057.2.346.346 0 0 0 .136.182l.1-.135a.355.355 0 0 1-.067-.076Z" class="cls-8"/><path d="M197.655 25.449a.352.352 0 0 0-.082.169l.165.034a.178.178 0 0 1 .037-.084.949.949 0 0 1 .925.038l.059-.158a1.071 1.071 0 0 0-1.104.001Z" class="cls-35"/><path d="m198.753 25.445-.053.161a.445.445 0 0 1 .1.069.225.225 0 0 1 .02.219l.164.038a.379.379 0 0 0-.065-.377.608.608 0 0 0-.166-.11Z" class="cls-8"/><path d="M198.75 26.027a1.115 1.115 0 0 1-.641 0l-.049.16a1.163 1.163 0 0 0 .791-.03.424.424 0 0 0 .139-.237l-.166-.031a.246.246 0 0 1-.074.138Z" class="cls-12"/><path d="m197.768 25.836-.15.082a1.049 1.049 0 0 0 .448.277l.043-.163a1 1 0 0 1-.341-.196Z" class="cls-6"/><path d="M197.759 25.824a.248.248 0 0 1-.021-.172l-.163-.041a.416.416 0 0 0 .037.3l.011.016.145-.088Z" class="cls-8"/><path d="M196.873 21.831a6.872 6.872 0 0 0-2.018 1.367l.133.1a7.243 7.243 0 0 1 1.876-1.3 6.876 6.876 0 0 0 1.614.3l.053-.166a6.221 6.221 0 0 1-1.658-.301Z" class="cls-35"/><path d="m198.525 22.141-.047.166a.363.363 0 0 1 .393.242l.161-.047a.5.5 0 0 0-.507-.361Z" class="cls-8"/><path d="M198.871 22.549a.727.727 0 0 1 0 .379l.161.052a.889.889 0 0 0 0-.485Z" class="cls-6"/><path d="M198.873 22.928a.452.452 0 0 1-.063.152.424.424 0 0 1-.372.143c-.283 0-.686-.119-1.032-.119a.819.819 0 0 0-.363.066l.076.151a.707.707 0 0 1 .287-.048c.328 0 .711.118 1.032.118a.588.588 0 0 0 .506-.208.6.6 0 0 0 .092-.21Z" class="cls-12"/><path d="M196.3 24.128a.447.447 0 0 1-.05.028l.129.121.028-.019c.087-.065.5-.82.718-.941l-.084-.147c-.26.142-.623.824-.741.958Z" class="cls-19"/><path d="M195.32 19.626a.191.191 0 0 0-.071-.008c-.174 0-.615.058-.983.111-.311.045-.57.087-.57.087l.144.147.463-.069c.375-.054.79-.107.946-.107h.014Z" class="cls-35"/><path d="m195.314 19.624-.051.163a2.985 2.985 0 0 1 .387.422l.13-.108a2.123 2.123 0 0 0-.466-.477Z" class="cls-8"/><path d="M195.92 20.6c0 .014.01.1.01.117l.166.051a1.011 1.011 0 0 0-.009-.194 1.821 1.821 0 0 0-.313-.479l-.124.115a2.261 2.261 0 0 1 .27.39Z" class="cls-63"/><path d="m196.1 20.76-.167-.044c0 .057-.016.078-.085.126a14.923 14.923 0 0 0-1.663 1.276 11.17 11.17 0 0 1-.652.589v-.026L193.4 23a4.751 4.751 0 0 0 .9-.755 15.322 15.322 0 0 1 1.645-1.261.3.3 0 0 0 .155-.224Z" class="cls-19"/><path d="M193.5 21.3a8.2 8.2 0 0 0-.121 1.694.028.028 0 0 0 .015 0l.136-.3c.016-.308.075-.871.154-1.514Z" class="cls-25"/><path d="m193.846 19.963-.15-.147s-.1.728-.2 1.488l.185-.123c.052-.39.107-.809.165-1.218Z" class="cls-8"/><path d="M191.554 19.2a1.169 1.169 0 0 0-.757.183l.143.1a1.3 1.3 0 0 1 .614-.109 1.8 1.8 0 0 1 .386.036l.073-.154a1.848 1.848 0 0 0-.459-.056Z" class="cls-35"/><path d="m192.006 19.246-.066.156a.531.531 0 0 1 .256.174l.171-.053a.726.726 0 0 0-.361-.277Z" class="cls-8"/><path d="M192.191 19.57a78.071 78.071 0 0 1-.217 1.605l.158.085c.121-.816.235-1.737.235-1.737Z" class="cls-62"/><path d="M191.974 21.175a9.357 9.357 0 0 1-.227 1.23l.15.077a8.063 8.063 0 0 0 .236-1.228Z" class="cls-19"/><path d="M191.61 22.5v.169a.341.341 0 0 0 .294-.2l-.153-.07a.176.176 0 0 1-.141.101Z" class="cls-62"/><path d="M191.569 22.489a3.99 3.99 0 0 0-.23-.153l-.083.147c.078.049.154.1.215.143a.234.234 0 0 0 .138.045V22.5a.069.069 0 0 1-.04-.011Z" class="cls-19"/><path d="M189.117 21.186a.314.314 0 0 1-.031-.018l-.124.121a.5.5 0 0 0 .085.05 23.253 23.253 0 0 1 2.215 1.148l.077-.151a23.6 23.6 0 0 0-2.222-1.15Z" class="cls-62"/><path d="M188.913 20.778a.253.253 0 0 1 .049-.1l-.127-.109a.519.519 0 0 0 .134.727l.117-.126a.379.379 0 0 1-.173-.392Z" class="cls-8"/><path d="M189.855 20.485c-.33 0-.567-.059-.682-.06a.413.413 0 0 0-.344.149l.133.1a.259.259 0 0 1 .211-.083 6.674 6.674 0 0 0 .682.061.988.988 0 0 0 .52-.1l-.085-.147a.845.845 0 0 1-.435.08Z" class="cls-35"/><path d="m190.283 20.411.092.142a2.521 2.521 0 0 0 .571-1.082l-.149-.091a2.544 2.544 0 0 1-.514 1.031Z" class="cls-8"/><path d="M188.418 22.4a1.53 1.53 0 0 0-.586-.169.338.338 0 0 0-.153.029l.062.159a.138.138 0 0 1 .091-.02 1.348 1.348 0 0 1 .511.152c.2.1.8.443 1.209.713l.1-.133a14.79 14.79 0 0 0-1.234-.731Z" class="cls-35"/><path d="m189.649 23.123-.1.138a1.814 1.814 0 0 1 .384.3.363.363 0 0 1 .009.31l.145.09a.539.539 0 0 0-.014-.494 1.905 1.905 0 0 0-.424-.344Z" class="cls-8"/><path d="M189.945 23.87c-.007.017-.071.182-.192.181a5.436 5.436 0 0 1-.848-.184 1.293 1.293 0 0 0-.552 0v.173a1.088 1.088 0 0 1 .515-.006 6.893 6.893 0 0 0 .89.189.39.39 0 0 0 .34-.268Z" class="cls-19"/><path d="m187.369 24.276.026.174a4.006 4.006 0 0 1 .958-.414v-.172a3.374 3.374 0 0 0-.984.412Z" class="cls-12"/><path d="m186.59 24.552.023.167a3.335 3.335 0 0 0 .788-.272l-.032-.171a3.283 3.283 0 0 1-.779.276Z" class="cls-12"/><path d="M186.59 24.552a.5.5 0 0 1-.217.01l-.061.157a.586.586 0 0 0 .308 0Z" class="cls-62"/><path d="m185.122 23.872-.144.093a1.9 1.9 0 0 0 1.006.643l.052-.162a1.685 1.685 0 0 1-.914-.574Z" class="cls-12"/><path d="m185.106 23.469-.147-.088a.624.624 0 0 0 .023.591l.14-.1a.457.457 0 0 1-.016-.403Z" class="cls-62"/><path d="M186.828 23.093a1.858 1.858 0 0 1-.876-.244.508.508 0 0 0-.253-.069.931.931 0 0 0-.742.607l.149.082a.777.777 0 0 1 .593-.52.333.333 0 0 1 .17.047 2.028 2.028 0 0 0 .959.265.77.77 0 0 0 .4-.089l-.08-.149a.558.558 0 0 1-.32.07Z" class="cls-35"/><path d="m187.135 23.028.088.144c.22-.131.42-.669.518-.756l-.055-.163c-.186.067-.32.609-.551.775Z" class="cls-8"/></g><g><path d="M180.076 33.661a.86.86 0 0 0-.575.232.977.977 0 0 0-.245 1.076c.054.183.141.454.157.523a.525.525 0 0 1-.131.568.394.394 0 0 1-.267.111.556.556 0 0 1-.395-.21.769.769 0 0 1-.1-.867L178 34.9a1.265 1.265 0 0 0 .233 1.416 1.193 1.193 0 0 0 .874.443.932.932 0 0 0 .627-.249 1 1 0 0 0 .3-1.021c-.028-.111-.162-.5-.207-.68a.444.444 0 0 1 .1-.491.334.334 0 0 1 .224-.094.374.374 0 0 1 .274.139.459.459 0 0 1 .051.527l.513.207a1.056 1.056 0 0 0-.906-1.437ZM182.324 35.56l-2.107 2.624.5.4 2.108-2.625-.3-.237-.2-.163ZM183.765 36.688l-1.591 2.967.491.264 1.119-2.085.11 2.744.526.282 1.591-2.967-.483-.259-1.123 2.094-.115-2.758-.525-.282ZM187.989 38.547a1.566 1.566 0 0 0-1.512 1.344 1.536 1.536 0 0 0 1.078 2.046 1.659 1.659 0 0 0 .4.053 1.234 1.234 0 0 0 1.028-.528l-.448-.367a.864.864 0 0 1-.65.336.822.822 0 0 1-.2-.027c-.461-.117-.763-.571-.564-1.354.165-.645.527-.946.933-.946a.9.9 0 0 1 .21.026.747.747 0 0 1 .554.533l.579-.151a1.3 1.3 0 0 0-.994-.912 1.673 1.673 0 0 0-.414-.053ZM190.532 39.033l-.1 3.364 2.172.064.016-.528-1.533-.046.03-1 1.115.033.016-.529-1.115-.033.023-.773 1.48.043.016-.528-2.12-.063ZM196.52 38.391l-.311.084-.87.817.311.414.467-.355.663 2.456.617-.166-.877-3.25ZM198.8 37.533a1.222 1.222 0 0 0-.515.12.946.946 0 0 0-.574 1.245.806.806 0 0 0 .748.46.865.865 0 0 0-.206 1.022.94.94 0 0 0 .884.537 1.428 1.428 0 0 0 .593-.139 1.054 1.054 0 0 0 .653-1.383.864.864 0 0 0-.793-.513.964.964 0 0 0-.119.008.8.8 0 0 0 .134-.867.864.864 0 0 0-.805-.49Zm-.168 1.419a.4.4 0 0 1-.364-.247.424.424 0 0 1 .231-.589.506.506 0 0 1 .217-.052.418.418 0 0 1 .381.257.411.411 0 0 1-.237.576.541.541 0 0 1-.228.055Zm.577 1.417a.481.481 0 0 1-.45-.292.54.54 0 0 1 .307-.735.68.68 0 0 1 .283-.066.515.515 0 0 1 .475.309.522.522 0 0 1-.316.713.723.723 0 0 1-.3.071ZM201.464 35.978a1.287 1.287 0 0 0-.743.26 1.049 1.049 0 0 0-.259 1.535l.484-.348a.5.5 0 1 1 .787-.618 1.089 1.089 0 0 1 .1.809l-.2 1.8.168.234 1.847-1.327-.309-.429-1.046.752.15-1.233a1.366 1.366 0 0 0-.195-1.021.948.948 0 0 0-.788-.414ZM203.976 33.775a1.257 1.257 0 0 0-.934.412c-.479.52-.523 1.382.336 2.175a1.889 1.889 0 0 0 1.26.572 1.259 1.259 0 0 0 .935-.413c.479-.519.522-1.382-.336-2.174a1.889 1.889 0 0 0-1.261-.572Zm.766 2.558a1.44 1.44 0 0 1-.914-.459c-.59-.545-.647-1.029-.383-1.315a.566.566 0 0 1 .428-.184 1.437 1.437 0 0 1 .914.46c.59.544.647 1.028.383 1.315a.566.566 0 0 1-.428.183Z" class="cls-104"/></g><g><path d="M1.864 18.445c0 4.4 2.938 6.043 7.351 7.148 4.2 1 5.063 2.313 5.063 3.968 0 1.834-1.644 3.115-4 3.115a10.081 10.081 0 0 1-7.008-2.969c-.077.093-2.2 2.709-2.271 2.8a13.387 13.387 0 0 0 9.184 3.633c4.71 0 7.874-2.8 7.874-6.975 0-3.654-2.188-5.835-7.1-7.073-4.448-1.1-5.318-2.3-5.318-4.008 0-1.486 1.265-2.989 3.682-2.989a9.842 9.842 0 0 1 6.016 2.346l2.026-2.961a12.059 12.059 0 0 0-7.973-2.847c-4.361 0-7.526 2.867-7.526 6.812ZM30.625 18.488l-3.764 12.141-3.409-12.076h-3.805l5.391 17.389h3.336c.026-.086 3.826-12.029 3.826-12.029l3.792 12.029h3.337c.027-.087 5.4-17.228 5.453-17.389h-3.711L37.6 30.626l-3.8-12.138ZM46.6 27.182v.066c0 5.189 3.592 8.956 8.541 8.956a10.66 10.66 0 0 0 6.273-1.8l-1.02-3.035a8.48 8.48 0 0 1-5.194 1.558 4.679 4.679 0 0 1-4.887-4.322l-.011-.071h12.335v-.024l.057-1.032c0-4.623-2.465-9.286-7.97-9.286-4.632 0-8.124 3.864-8.124 8.99Zm3.686-1.225c.363-2.815 2.095-4.632 4.411-4.632 2.379 0 4.034 1.775 4.317 4.633l.006.069h-8.746ZM79.136 11.633v8.393l-.1-.08a7.586 7.586 0 0 0-5.122-1.754c-3.834 0-7.716 3.076-7.716 8.957v.064c0 5.881 4.092 8.959 8.133 8.959a61.841 61.841 0 0 0 8.523-.783V11.633Zm-9.191 15.58v-.064c0-3.26 2.057-5.627 4.89-5.627 2.626 0 4.366 1.754 4.366 2.465v8.556l-.051.01a25.483 25.483 0 0 1-4.315.288c-2.788 0-4.89-2.419-4.89-5.628ZM87.8 11.633v23.756a61.86 61.86 0 0 0 8.523.783c4.042 0 8.134-3.078 8.134-8.959v-.064c0-5.881-3.883-8.957-7.717-8.957a7.588 7.588 0 0 0-5.122 1.754l-.1.08v-8.393Zm3.7 20.92-.05-.01v-8.556c0-.711 1.739-2.465 4.364-2.465 2.833 0 4.89 2.367 4.89 5.627v.064c0 3.209-2.1 5.628-4.89 5.628a25.462 25.462 0 0 1-4.306-.288ZM109.029 19.709l1.01 3.077a11.287 11.287 0 0 1 4.755-1.065c2.7 0 4.19 1.343 4.19 3.782v.416l-.083-.028a13.563 13.563 0 0 0-4.616-.72c-4.216 0-6.733 2.105-6.733 5.633v.066c0 3.642 3.062 5.3 5.907 5.3a67.1 67.1 0 0 0 9.177-.784v-9.82c0-4.76-2.525-7.277-7.3-7.277a13.874 13.874 0 0 0-6.307 1.42Zm2.21 10.962v-.066c0-1.73 1.46-2.762 3.9-2.762a10.825 10.825 0 0 1 3.865.7l.039.015v4.421l-.051.009a26.317 26.317 0 0 1-4.455.319c-1.971-.007-3.298-1.062-3.298-2.636ZM127.332 18.974V35.81h3.717v-14l.051-.009a24.553 24.553 0 0 1 3.791-.273c2.285 0 3.649 1.671 3.649 4.47v9.812h3.717v-11c0-4.084-2.263-6.62-5.906-6.62a62.838 62.838 0 0 0-9.019.784ZM147.018 11.633V35.81h3.716v-4.933l2.419-2.61 5.074 7.543h4.294l-6.852-10.249 6.6-7.008h-4.5l-7.043 7.8v-14.72Z" class="cls-105"/></g><g><path d="M215 47h1v1h-1zM0 0h1v1H0z" class="cls-106"/></g></g></g></svg>